<?xml version="1.0" encoding="UTF-8" standalone="no"?>
<!DOCTYPE svg PUBLIC "-//W3C//DTD SVG 1.1//EN" "http://www.w3.org/Graphics/SVG/1.1/DTD/svg11.dtd">
<svg width="100%" height="100%" viewBox="0 0 334 534" version="1.1" xmlns="http://www.w3.org/2000/svg" xmlns:xlink="http://www.w3.org/1999/xlink" xml:space="preserve" xmlns:serif="http://www.serif.com/" style="fill-rule:evenodd;clip-rule:evenodd;stroke-linejoin:round;stroke-miterlimit:2;">
    <g transform="matrix(1.33333,0,0,1.33333,0,0)">
        <g transform="matrix(1,0,0,1,-25.7454,240.731)">
            <circle cx="161.646" cy="96.924" r="5.48" style="fill:white;"/>
        </g>
        <g transform="matrix(1,0,0,1,19.2932,153.891)">
            <circle cx="161.646" cy="96.924" r="5.48" style="fill:white;"/>
        </g>
        <g transform="matrix(1,0,0,1,5.28474,196.214)">
            <circle cx="161.646" cy="96.924" r="5.48" style="fill:white;"/>
        </g>
        <g transform="matrix(1,0,0,1,49.3422,142.931)">
            <circle cx="161.646" cy="96.924" r="5.48" style="fill:white;"/>
        </g>
        <g transform="matrix(1,0,0,1,-36.6461,196.214)">
            <circle cx="161.646" cy="96.924" r="5.48" style="fill:white;"/>
        </g>
        <g transform="matrix(1,0,0,1,-69.739,214.27)">
            <circle cx="161.646" cy="96.924" r="5.48" style="fill:white;"/>
        </g>
        <g transform="matrix(1,0,0,1,30.2525,180.325)">
            <circle cx="161.646" cy="96.924" r="5.48" style="fill:white;"/>
        </g>
        <g transform="matrix(1,0,0,1,-17.7479,169.366)">
            <circle cx="161.646" cy="96.924" r="5.48" style="fill:white;"/>
        </g>
        <g transform="matrix(1,0,0,1,-114.358,222.166)">
            <circle cx="161.646" cy="96.924" r="5.48" style="fill:white;"/>
        </g>
        <g transform="matrix(1,0,0,1,-143.554,201.693)">
            <circle cx="161.646" cy="96.924" r="5.48" style="fill:white;"/>
        </g>
        <g transform="matrix(1,0,0,1,-95.8322,190.734)">
            <circle cx="161.646" cy="96.924" r="5.48" style="fill:white;"/>
        </g>
        <g transform="matrix(1,0,0,1,-152.289,161.75)">
            <circle cx="161.646" cy="96.924" r="5.48" style="fill:white;"/>
        </g>
    </g>
</svg>
