<?xml version="1.0" encoding="UTF-8" standalone="no"?>
<!DOCTYPE svg PUBLIC "-//W3C//DTD SVG 1.1//EN" "http://www.w3.org/Graphics/SVG/1.1/DTD/svg11.dtd">
<svg width="100%" height="100%" viewBox="0 0 800 800" version="1.1" xmlns="http://www.w3.org/2000/svg" xmlns:xlink="http://www.w3.org/1999/xlink" xml:space="preserve" xmlns:serif="http://www.serif.com/" style="fill-rule:evenodd;clip-rule:evenodd;stroke-linejoin:round;stroke-miterlimit:2;">
    <path d="M603.284,287.579C601.106,344.059 579.726,398.141 542.695,440.842C531.727,453.063 523.36,467.39 518.105,482.947L518.105,526.611C518.105,548.554 500.049,566.611 478.105,566.611L321.895,566.611C299.951,566.611 281.895,548.554 281.895,526.611L281.895,482.947C276.638,467.391 268.272,453.064 257.305,440.842C220.243,398.152 198.833,344.069 196.632,287.579C196.632,287.577 196.632,287.575 196.632,287.574C196.632,176.009 288.435,84.205 400,84.205C481.604,84.205 555.641,133.322 587.368,208.505C597.977,233.544 603.419,260.47 603.368,287.663L603.284,287.579ZM563.284,287.579C563.284,198.004 489.575,124.295 400,124.295C310.425,124.295 236.716,198.004 236.716,287.579C236.716,387.074 321.895,431.116 321.895,482.947L321.895,526.611L478.105,526.611L478.105,482.947C478.105,431.116 563.284,387.074 563.284,287.579ZM498.105,613.558C498.105,613.572 498.105,613.586 498.105,613.6C498.105,624.572 489.077,633.6 478.105,633.6C478.105,633.6 321.895,633.6 321.895,633.6C310.923,633.6 301.895,624.572 301.895,613.6C301.895,602.628 310.923,593.6 321.895,593.6L478.105,593.6C489.061,593.6 498.082,602.602 498.105,613.558ZM471.158,666.695C472.551,670.724 471.227,675.221 467.874,677.853C427.45,709.244 370.445,709.244 330.021,677.853C327.562,675.965 326.118,673.036 326.118,669.937C326.118,664.463 330.623,659.958 336.097,659.958C336.107,659.958 336.117,659.958 336.126,659.958L461.726,659.958C465.987,659.955 469.804,662.67 471.2,666.695L471.158,666.695Z" style="fill:rgb(255,223,77);fill-rule:nonzero;"/>
</svg>
