<?xml version="1.0" encoding="UTF-8" standalone="no"?>
<!DOCTYPE svg PUBLIC "-//W3C//DTD SVG 1.1//EN" "http://www.w3.org/Graphics/SVG/1.1/DTD/svg11.dtd">
<svg width="100%" height="100%" viewBox="0 0 800 800" version="1.1" xmlns="http://www.w3.org/2000/svg" xmlns:xlink="http://www.w3.org/1999/xlink" xml:space="preserve" xmlns:serif="http://www.serif.com/" style="fill-rule:evenodd;clip-rule:evenodd;stroke-linejoin:round;stroke-miterlimit:2;">
    <path d="M679.874,652.126C661.736,670.135 632.032,670.135 613.895,652.126L470.947,509.179C432.508,534.649 387.402,548.237 341.29,548.237C212.517,548.237 106.553,442.273 106.553,313.5C106.553,184.727 212.517,78.763 341.29,78.763C470.062,78.763 576.026,184.727 576.026,313.5C576.026,359.612 562.439,404.718 536.968,443.158L679.874,586.105C697.91,604.247 697.91,633.984 679.874,652.126ZM412.042,487.789C483.305,458.988 530.201,389.452 530.201,312.589C530.201,208.924 444.897,123.621 341.232,123.621C237.567,123.621 152.264,208.924 152.264,312.589C152.264,416.254 237.567,501.558 341.232,501.558C341.243,501.558 341.253,501.558 341.263,501.558C365.511,501.596 389.537,496.92 412,487.789L412.042,487.789Z" style="fill:rgb(135,209,86);fill-rule:nonzero;"/>
</svg>
