<?xml version="1.0" encoding="UTF-8" standalone="no"?>
<!DOCTYPE svg PUBLIC "-//W3C//DTD SVG 1.1//EN" "http://www.w3.org/Graphics/SVG/1.1/DTD/svg11.dtd">
<svg width="100%" height="100%" viewBox="0 0 800 800" version="1.1" xmlns="http://www.w3.org/2000/svg" xmlns:xlink="http://www.w3.org/1999/xlink" xml:space="preserve" xmlns:serif="http://www.serif.com/" style="fill-rule:evenodd;clip-rule:evenodd;stroke-linejoin:round;stroke-miterlimit:2;">
    <path d="M525,199.999L525,352.723L675,515.223L675,650L495,575L472.133,575C474.953,590.703 477.143,612.737 471.4,632.107C465.53,651.897 449.603,674.05 437.853,688.957C431.547,696.96 425.557,703.957 421.153,708.947C418.943,711.447 417.113,713.467 415.82,714.877C415.173,715.58 414.66,716.133 414.3,716.523L413.873,716.98L413.75,717.11L413.71,717.15L413.693,717.17L394.493,737.473L376.44,716.147L376.383,716.083L376.27,715.947L375.88,715.48C375.55,715.083 375.083,714.523 374.5,713.81C373.333,712.383 371.69,710.347 369.71,707.823C365.77,702.797 360.427,695.743 354.863,687.67C344.557,672.717 330.516,650.133 326.505,629.85C322.816,611.197 326.63,590.343 330.734,575L305,575L125,650L125,515.223L275,352.723L275,199.999C275,178.517 284.678,160.035 295.947,145.654C307.304,131.161 321.828,118.818 335.34,109.037C348.993,99.155 362.493,91.258 372.5,85.857C377.533,83.141 381.75,81.019 384.753,79.555C386.257,78.823 387.46,78.254 388.313,77.856L389.33,77.387L389.63,77.251L389.723,77.208L389.783,77.181L400,72.607L410.24,77.192L410.277,77.208L410.37,77.251L410.67,77.387L411.687,77.856C412.54,78.254 413.743,78.823 415.247,79.555C418.25,81.019 422.467,83.141 427.5,85.857C437.507,91.258 451.007,99.155 464.66,109.037C478.173,118.818 492.697,131.161 504.053,145.654C515.323,160.035 525,178.517 525,199.999ZM382.987,575C382.083,577.64 381.153,580.523 380.26,583.56C375.973,598.16 373.917,611.863 375.553,620.15C377.337,629.153 385.54,644.07 396.033,659.297L396.743,660.323C397.353,659.563 397.967,658.79 398.583,658.007C410.617,642.737 420.643,627.393 423.463,617.89C425.997,609.353 425.243,595.663 422.443,581.297C422.017,579.103 421.56,576.993 421.1,575L382.987,575ZM525,533.333L525,426.44L625,534.773L625,575L525,533.333ZM475,199.999L475,525L325,525L325,199.999C325,193.866 327.822,186.041 335.303,176.494C342.697,167.059 353.173,157.854 364.66,149.539C376.007,141.324 387.507,134.577 396.25,129.857C397.573,129.143 398.827,128.478 400,127.866C401.173,128.478 402.427,129.143 403.75,129.857C412.493,134.577 423.993,141.324 435.34,149.539C446.827,157.854 457.303,167.059 464.697,176.494C472.177,186.041 475,193.866 475,199.999ZM275,426.44L275,533.333L175,575L175,534.773L275,426.44Z" style="fill:rgb(239,89,0);"/>
</svg>
