<?xml version="1.0" encoding="UTF-8" standalone="no"?>
<!DOCTYPE svg PUBLIC "-//W3C//DTD SVG 1.1//EN" "http://www.w3.org/Graphics/SVG/1.1/DTD/svg11.dtd">
<svg width="100%" height="100%" viewBox="0 0 85 123" version="1.1" xmlns="http://www.w3.org/2000/svg" xmlns:xlink="http://www.w3.org/1999/xlink" xml:space="preserve" xmlns:serif="http://www.serif.com/" style="fill-rule:evenodd;clip-rule:evenodd;stroke-linejoin:round;stroke-miterlimit:2;">
    <g>
        <path d="M26.6,80.57C26.49,80.51 26.35,80.43 26.23,80.34C24.74,79.16 23.1,77.83 21.69,76.68C19.63,74.99 17.26,73.04 15.6,71.66C14.47,70.73 13.18,70.08 11.97,69.83C11.18,69.69 10.48,69.69 9.91,69.91C9.46,70.11 9.06,70.47 8.81,71.04C8.47,71.8 8.3,72.87 8.39,74.34C8.47,75.64 8.93,77.05 9.52,78.43C10.39,80.43 11.61,82.29 12.51,83.47C12.57,83.55 12.62,83.61 12.65,83.7L30.49,109.18C30.72,109.52 30.86,109.89 30.88,110.25C31.25,113.18 31.87,115.41 32.77,116.79C33.45,117.8 34.29,118.31 35.39,118.28L63.46,118.28C65.21,118.25 66.79,117.75 68.25,116.73C69.86,115.63 71.29,113.91 72.62,111.6C72.65,111.57 72.68,111.52 72.7,111.49C73.21,110.62 73.88,109.49 74.53,108.42C77.38,103.74 79.86,99.65 80.14,93.85L79.97,85.85C79.94,85.74 79.94,85.62 79.94,85.51C79.94,85.4 79.94,84.64 79.97,83.62C80.03,78.32 80.11,71.78 75.26,70.97L72.13,70.97C72.1,72.46 72.02,73.99 71.93,75.45C71.85,76.77 71.76,78.01 71.76,79.23C71.76,80.53 70.72,81.57 69.42,81.57C68.12,81.57 67.08,80.53 67.08,79.23C67.08,78.02 67.16,76.61 67.25,75.14C67.56,70.15 67.93,64.43 63.95,63.73L60.85,63.73C60.68,63.73 60.51,63.7 60.34,63.67C60.37,65.47 60.26,67.33 60.14,69.14C60.08,70.46 60,71.7 60,72.91C60,74.21 58.96,75.25 57.66,75.25C56.36,75.25 55.32,74.21 55.32,72.91C55.32,71.7 55.4,70.29 55.49,68.82C55.8,63.83 56.17,58.11 52.19,57.41L49.09,57.41C48.86,57.41 48.67,57.38 48.47,57.33L48.47,66.43C48.47,67.73 47.43,68.77 46.13,68.77C44.83,68.77 43.79,67.73 43.79,66.43L43.79,41.99C43.79,37.9 42.13,35.31 39.99,34.24C39.2,33.84 38.36,33.65 37.54,33.65C36.72,33.65 35.88,33.85 35.09,34.24C32.98,35.31 31.34,37.9 31.34,42.1L31.34,84.91C31.34,86.21 30.3,87.25 29,87.25C27.7,87.25 26.66,86.21 26.66,84.91L26.66,80.57L26.6,80.57ZM39.29,13.99C39.29,15.54 38.03,16.77 36.51,16.77C34.96,16.77 33.73,15.51 33.73,13.99L33.73,2.78C33.73,1.23 34.99,0 36.51,0C38.06,0 39.29,1.26 39.29,2.78L39.29,13.99ZM13.99,36.95C15.54,36.95 16.77,38.21 16.77,39.73C16.77,41.28 15.51,42.51 13.99,42.51L2.78,42.51C1.23,42.5 0,41.24 0,39.73C0,38.18 1.26,36.95 2.78,36.95L13.99,36.95ZM21.92,20.33C23,21.41 23,23.18 21.92,24.26C20.84,25.34 19.07,25.34 17.99,24.26L10.09,16.33C9.01,15.25 9.01,13.48 10.09,12.4C11.17,11.32 12.94,11.32 14.02,12.4L21.92,20.33ZM58.47,42.5C56.92,42.5 55.69,41.24 55.69,39.72C55.69,38.17 56.95,36.94 58.47,36.94L69.68,36.94C71.23,36.94 72.46,38.2 72.46,39.72C72.46,41.27 71.2,42.5 69.68,42.5L58.47,42.5ZM54.47,23.65C53.39,24.73 51.62,24.73 50.54,23.65C49.46,22.57 49.46,20.8 50.54,19.72L58.44,11.79C59.52,10.71 61.29,10.71 62.37,11.79C63.45,12.87 63.45,14.64 62.37,15.72L54.47,23.65ZM48.47,52.79C48.67,52.73 48.86,52.71 49.09,52.71L52.33,52.71C52.5,52.71 52.7,52.74 52.86,52.77C57.17,53.45 59.12,55.96 59.91,59.22C60.22,59.08 60.56,58.99 60.9,58.99L64.14,58.99C64.31,58.99 64.51,59.02 64.67,59.05C69.32,59.78 71.18,62.63 71.86,66.24C71.97,66.21 72.09,66.21 72.23,66.21L75.47,66.21C75.64,66.21 75.84,66.24 76.01,66.27C84.92,67.65 84.8,76.5 84.72,83.63L84.72,85.49L84.92,93.72L84.92,93.97C84.58,100.99 81.82,105.53 78.64,110.77C78.1,111.64 77.57,112.54 76.84,113.79C76.81,113.82 76.81,113.85 76.78,113.87C75.12,116.77 73.2,119 71,120.52C68.77,122.07 66.29,122.86 63.59,122.89L35.53,122.89C32.74,122.95 30.57,121.73 28.96,119.34C27.66,117.42 26.82,114.72 26.37,111.34L8.9,86.35L8.81,86.27C7.77,84.89 6.36,82.72 5.29,80.32C4.5,78.52 3.91,76.57 3.77,74.65C3.63,72.37 3.94,70.56 4.59,69.13C5.38,67.35 6.68,66.2 8.23,65.58C9.67,64.99 11.3,64.9 12.94,65.24C14.91,65.64 16.94,66.62 18.66,68.06C20.07,69.24 22.44,71.16 24.75,73.05L26.67,74.63L26.67,42.13C26.67,35.9 29.43,31.9 33.01,30.09C34.45,29.36 36,28.99 37.58,28.99C39.16,28.99 40.71,29.36 42.14,30.09C45.72,31.89 48.54,35.92 48.54,42.04L48.54,52.8L48.47,52.79Z" style="fill:white;fill-rule:nonzero;"/>
    </g>
</svg>
