<?xml version="1.0" encoding="UTF-8" standalone="no"?>
<!DOCTYPE svg PUBLIC "-//W3C//DTD SVG 1.1//EN" "http://www.w3.org/Graphics/SVG/1.1/DTD/svg11.dtd">
<svg width="100%" height="100%" viewBox="0 0 2000 1000" version="1.1" xmlns="http://www.w3.org/2000/svg" xmlns:xlink="http://www.w3.org/1999/xlink" xml:space="preserve" xmlns:serif="http://www.serif.com/" style="fill-rule:evenodd;clip-rule:evenodd;stroke-linejoin:round;stroke-miterlimit:2;">
    <g transform="matrix(1.18763,0,0,1.18763,-187.632,-678.744)">
        <g transform="matrix(0.140716,0,0,0.140716,131.765,130.03)">
            <g>
                <path d="M5700.31,3610.01C5717.4,3613.46 5733.53,3616.71 5749.61,3620.34C5776.74,3626.46 5798.6,3631.61 5818.44,3636.53C5839.97,3641.88 5860.8,3647.47 5885.79,3654.22C5900.3,3658.14 5914.79,3662.42 5930.09,3666.95C5935.66,3668.6 5941.24,3670.25 5946.82,3671.88C5964.44,3677.03 5982.51,3682.72 6000.56,3688.79C6006.04,3690.63 6011.51,3692.45 6016.99,3694.28C6032.47,3699.44 6047.08,3704.31 6061.59,3709.51L6063.66,3710.25C6085.3,3717.99 6105.69,3725.3 6126.21,3733.09C6147.84,3741.29 6169.68,3749.82 6191.16,3758.44C6211.93,3766.78 6232.3,3775.41 6253.86,3784.55L6254.57,3784.86C6258.63,3786.58 6262.69,3788.32 6266.76,3790.09C6266.1,3790.89 6265.44,3791.69 6264.79,3792.5C6248.31,3813.18 6233.14,3834.6 6219.68,3856.16C6206.23,3877.69 6194.26,3900.11 6184.11,3922.8C6173.49,3946.51 6164.12,3971.14 6156.27,3996.01C6155.11,3999.7 6154,4003.4 6152.92,4007.11L6118.26,4004.31C6104.76,4003.21 6090.77,4002.07 6076.39,4001.34L5985.47,3996.75C5970.93,3996.01 5955.43,3995.27 5939.53,3994.95L5847.9,3993.11C5831.54,3992.78 5816.65,3992.7 5802.36,3992.85L5710.59,3993.79C5697.13,3993.93 5682.97,3994.33 5664.62,3995.08L5573.65,3998.82C5559.03,3999.42 5544.85,4000.45 5531.14,4001.45L5438.03,4008.2C5424.6,4009.17 5411.7,4010.58 5399.23,4011.94C5395.24,4012.38 5391.28,4012.81 5387.32,4013.22L5304.43,4021.9C5299.15,4022.46 5293.98,4023.09 5288.85,4023.76C5292.33,4011.32 5295.77,3999.89 5299.6,3988.74C5306.29,3969.2 5313.23,3948.98 5320.91,3930.71L5321.03,3930.43C5329.41,3910.5 5337.34,3891.68 5346.17,3874.14C5354.68,3857.23 5364.85,3837.41 5375.76,3818.54C5386.74,3799.49 5398.75,3780.89 5409.05,3765.21C5420.08,3748.42 5432.93,3731.51 5445.35,3715.16C5456.98,3699.81 5470.14,3684.61 5484.85,3667.76C5497.85,3652.88 5512.41,3638.15 5527.43,3623.1C5539.8,3610.73 5553.1,3598.72 5566,3587.36C5584.2,3589.82 5602.27,3592.68 5621.38,3595.7L5631.81,3597.35C5650.21,3600.25 5668.41,3603.53 5685.85,3607.08C5690.67,3608.06 5695.49,3609.04 5700.31,3610.01Z" style="fill:white;"/>
                <path d="M5638.96,5799.28C5521.25,5792.36 5286.89,5794.74 5156.23,5799.28C5048.43,5803.03 5031.65,5811.89 5029.9,5786.21C5001.01,5362.64 4724.68,5349.78 4728.84,5346.95L4794.9,5302.03C4804.64,5295.39 4814.82,5288.9 4825.62,5282.06C4831.02,5278.6 4836.42,5275.17 4841.8,5271.69L4902.35,5232.54C4913.46,5225.37 4924.99,5218.4 4937.21,5211.01C4943.57,5207.17 4949.93,5203.33 4956.24,5199.44C4962.5,5195.58 4968.74,5191.69 4974.97,5187.81C4987.01,5180.29 4998.4,5173.17 5009.76,5166.53L5071.98,5130.18C5077.7,5126.85 5083.44,5123.44 5089.16,5120.06C5100.35,5113.4 5110.95,5107.14 5121.47,5101.28L5188.89,5063.9C5194.17,5060.97 5199.42,5058.02 5204.67,5055.06C5215.4,5049.01 5225.52,5043.3 5235.59,5038.03L5276.73,5016.39C5279.41,5021.62 5282.09,5026.79 5284.74,5031.92L5287.51,5037.27C5295.09,5051.88 5302.94,5065.79 5310.56,5079.27C5313.46,5084.42 5316.36,5089.59 5319.24,5094.77C5323.63,5102.64 5328,5109.81 5332.22,5116.75C5334.01,5119.71 5335.8,5122.63 5337.57,5125.59C5338.8,5127.66 5340.02,5129.73 5341.25,5131.82C5344.79,5137.83 5348.45,5144.06 5352.61,5150.6C5355.39,5154.99 5358.14,5159.36 5360.89,5163.75C5370.2,5178.54 5379.85,5193.84 5390.12,5209.09C5404.46,5230.39 5417.46,5249.6 5431.31,5269.01C5445.12,5288.32 5459.31,5307.63 5474.7,5328.05C5488.94,5346.88 5503.53,5365.2 5517.66,5382.95L5519.13,5384.79C5530.54,5399.13 5542.17,5412.94 5553.43,5426.26C5556.84,5430.3 5560.22,5434.32 5563.63,5438.36C5574.13,5450.9 5584.81,5462.84 5595.13,5474.37C5599.4,5479.12 5603.64,5483.86 5607.88,5488.66C5613.13,5494.59 5618.23,5499.99 5623.15,5505.22C5625.17,5507.39 5627.21,5509.54 5629.23,5511.71C5631.55,5514.21 5633.83,5516.7 5636.12,5519.2C5641.4,5524.98 5646.88,5530.97 5652.91,5537.15C5657.5,5541.87 5662.1,5546.62 5666.66,5551.36C5676.99,5562.09 5687.69,5573.17 5698.97,5584.18C5703.49,5588.57 5707.96,5592.96 5712.45,5597.38C5723.84,5608.58 5735.62,5620.14 5747.97,5631.58C5751.83,5635.16 5755.67,5638.75 5759.53,5642.36C5765.41,5647.83 5771.39,5653.41 5777.48,5659.02C5777.48,5659.02 5679.85,5801.69 5638.96,5799.28Z" style="fill:white;"/>
                <path d="M7156.17,8952.5C7115,8967.11 7072.92,8980.95 7031.14,8993.69C7034.35,8990.67 7037.58,8987.61 7040.76,8984.48L7067.67,8958.18C7074.59,8951.39 7080.8,8944.8 7086.8,8938.44C7089.38,8935.72 7091.95,8932.96 7094.55,8930.26C7098.36,8926.33 7102.1,8922.34 7105.76,8918.37C7109.07,8918.05 7112.35,8917.69 7115.65,8917.36C7131.45,8915.77 7147.78,8914.16 7164.55,8911.79L7242.36,8900.83C7249.18,8899.87 7255.54,8898.71 7261.12,8897.7C7263.29,8897.3 7265.46,8896.92 7267.63,8896.54L7314.1,8888.44C7318.04,8887.76 7321.95,8887.05 7325.81,8886.32C7310.17,8892.98 7294.44,8899.57 7278.76,8905.93C7238.43,8922.31 7197.18,8937.96 7156.17,8952.5Z" style="fill:white;"/>
                <path d="M6686.14,3382.55L6682.96,3379.74C6666.81,3365.54 6650.1,3350.85 6632.08,3336.68C6612.64,3321.39 6596.16,3308.69 6580.86,3297.24C6602.09,3298.71 6622.36,3300.16 6642.65,3302.11C6665.52,3304.32 6688.57,3306.85 6711.21,3309.64C6733.88,3312.44 6756.62,3315.86 6778.58,3319.16C6794.91,3321.61 6811.24,3324.53 6828.51,3327.62C6833.53,3328.52 6838.53,3329.41 6843.53,3330.3C6857.41,3332.75 6871.39,3335.66 6886.18,3338.75C6892.67,3340.1 6899.13,3341.45 6905.59,3342.76C6910.67,3343.78 6916.17,3345.09 6921.98,3346.47C6925.08,3347.2 6928.16,3347.93 6931.26,3348.64C6935.15,3349.53 6939.09,3350.4 6943,3351.26C6949.94,3352.8 6956.51,3354.25 6962.56,3355.8C6969.35,3357.53 6976.14,3359.21 6982.96,3360.9C6996.59,3364.28 7009.49,3367.47 7021.98,3371C7028.42,3372.81 7034.83,3374.58 7041.27,3376.35C7055.96,3380.41 7069.84,3384.24 7083.39,3388.43C7088.87,3390.12 7094.37,3391.8 7099.85,3393.48C7115.88,3398.38 7131,3403 7145.89,3408L7157.02,3411.73C7161.36,3413.18 7165.63,3414.61 7169.85,3416.04C7171.79,3419.34 7173.73,3422.91 7175.7,3426.82C7183.32,3441.99 7188.93,3459.77 7193.4,3475.17C7198.7,3493.41 7202.51,3514.3 7205.87,3532.72C7208.14,3545.19 7209.83,3558.41 7211.27,3571.57C7186.58,3565.29 7164.34,3560.14 7143.34,3555.88C7119.77,3551.09 7095.74,3546.85 7071.88,3543.26C7050.66,3540.08 7027.69,3537.32 6999.57,3534.6C6975.76,3532.3 6953.07,3531.24 6927.96,3530.2C6903.65,3529.18 6879.9,3529.18 6857.76,3530.19L6855.11,3530.31C6848.9,3530.59 6842.62,3530.89 6836.28,3531.21C6835.17,3529.97 6834.08,3528.75 6832.97,3527.48C6817.35,3509.98 6801.75,3493.83 6788.52,3480.33C6773.33,3464.8 6756.95,3448.53 6735.41,3427.55C6718.78,3411.36 6701.94,3396.44 6686.14,3382.55Z" style="fill:white;"/>
                <path d="M3583.25,5795.89C3298.8,5798.27 3275.82,5805.36 3275.87,5787.39C3275.92,5763.53 3276.2,5768.51 3276.7,5746.15C3277.13,5726.94 3278.39,5707.45 3279.73,5686.86L3280.01,5682.79C3281.45,5660.63 3283.69,5638.49 3285.51,5621.68C3287.76,5600.68 3290.38,5580.31 3293.26,5561.18L3293.81,5557.57C3294.47,5553.15 3295.15,5548.84 3295.81,5544.52C3301.84,5524.53 3308.38,5503.25 3315.55,5481.87C3317.99,5474.58 3320.9,5466.05 3323.95,5457.87C3325.37,5454.03 3326.75,5450.19 3328.14,5446.33C3330.57,5439.62 3332.84,5433.26 3335.16,5427.6C3344.25,5405.29 3352.5,5385.22 3361.31,5365.36C3369.49,5346.98 3378.2,5328.86 3387.43,5309.65L3388.87,5306.65C3391.68,5300.84 3395.01,5294.55 3398.54,5287.92C3400.59,5284.08 3402.6,5280.27 3404.6,5276.4C3408.33,5269.26 3412.32,5262.04 3416.82,5254.04C3428.48,5233.09 3440.72,5212.39 3452.2,5193.16C3460.38,5179.48 3469.64,5165.07 3481.38,5147.78L3486.36,5140.4C3486.36,5142.62 3486.33,5144.82 3486.33,5147.02L3486.33,5147.93C3486.31,5169.81 3486.25,5192.43 3487.11,5215.42C3488,5238.44 3489.13,5262.12 3490.6,5287.84C3491.86,5309.6 3493.93,5330.88 3495.92,5351.45L3496.86,5361.09C3499.05,5383.78 3501.98,5406.4 3504.83,5427.48C3507.23,5445.37 3510.51,5469 3514.6,5492.75C3518.54,5515.59 3522.8,5539.93 3527.7,5564.44C3532.57,5588.87 3537.97,5612.87 3543.07,5635.34C3547.11,5653.08 3551.6,5670.32 3555.97,5687.01C3557.61,5693.32 3559.28,5699.65 3560.89,5705.97C3565.66,5724.67 3570.99,5742.82 3576.14,5760.36L3583.25,5795.89Z" style="fill:white;"/>
                <path d="M7570.87,5793.83L6961.89,5796.39L6996.19,5688.32C6998.36,5681.51 7000.22,5675.02 7002.04,5668.78L7068.25,5440.37C7070.44,5432.8 7072.39,5425.51 7074.31,5418.41L7076.33,5410.87L7112.12,5278.65C7126.73,5282.74 7141.02,5286.48 7154.7,5289.98C7178.15,5295.99 7201.05,5300.74 7224.37,5305.48C7247.54,5310.18 7270.28,5313.59 7292.29,5316.89L7294.49,5317.22C7315.99,5320.45 7336.9,5322.45 7357.14,5324.39L7363.68,5324.99C7386.85,5327.24 7410.28,5328.53 7433.29,5328.83C7443.27,5328.98 7454.57,5329.14 7465.98,5329.14C7474.3,5329.14 7481.87,5329.03 7489.04,5328.88L7497.49,5367.45C7500.34,5380.48 7503.18,5394.13 7505.9,5408.09L7523.53,5498.13C7526.22,5511.88 7528.67,5525.94 7530.95,5539.17L7546.4,5628.68C7548.48,5640.77 7550.31,5652.98 7552.24,5665.91L7566.29,5759.6C7567.95,5770.68 7569.37,5781.94 7570.87,5793.83Z" style="fill:white;"/>
                <path d="M5269.87,4189.58C5275.67,4188.78 5281.48,4187.93 5287.26,4187.09C5299.2,4185.35 5310.46,4183.7 5321.26,4182.57L5404.13,4173.89C5408.34,4173.45 5412.53,4172.99 5416.72,4172.53C5428.28,4171.27 5439.19,4170.09 5449.71,4169.32L5542.91,4162.57C5555.93,4161.62 5568.22,4160.72 5580.29,4160.23L5671.23,4156.49C5687.87,4155.81 5700.51,4155.45 5712.25,4155.33L5804.05,4154.38C5816.68,4154.25 5829.95,4154.33 5844.64,4154.63L5936.3,4156.47C5949.93,4156.74 5964.01,4157.41 5977.29,4158.09L6068.23,4162.68C6080.15,4163.29 6092.29,4164.27 6105.16,4165.32L6128.31,4167.19C6127.83,4183.78 6127.93,4201.19 6128.61,4219.89C6129.42,4241.8 6131.59,4265.33 6135.43,4293.93C6138.35,4315.56 6142.52,4337.87 6148.95,4366.3C6154.2,4389.55 6160.59,4412.62 6167.91,4434.89C6170.86,4443.85 6173.84,4452.57 6176.87,4461.15L6156.63,4467.58C6142.64,4472.02 6128.64,4476.65 6113.74,4481.76L6026.96,4511.52C6012.1,4516.63 5997.73,4521.88 5984.3,4526.82L5899.06,4558.2C5885.89,4563.06 5873.01,4568.12 5860.6,4573.02L5772.4,4607.7C5760.29,4612.46 5748.5,4617.41 5737.14,4622.2L5647.2,4659.87C5635.44,4664.79 5624.06,4669.88 5613.05,4674.81C5609.59,4676.35 5606.16,4677.9 5602.7,4679.44L5523.22,4714.77C5511.58,4719.95 5500.35,4725.28 5489.47,4730.45C5485.56,4732.31 5481.65,4734.17 5477.73,4736.02L5400.62,4772.33C5388.93,4777.83 5377.68,4783.5 5366.82,4788.98C5362.56,4791.12 5358.29,4793.27 5354.02,4795.4L5353.17,4795.83C5352.26,4793.63 5351.4,4791.46 5350.49,4789.22L5345.92,4777.89C5344,4773.1 5342.03,4767.64 5339.96,4761.86C5338.93,4759 5337.89,4756.14 5336.86,4753.3C5335.75,4750.29 5334.64,4747.29 5333.5,4744.3C5331.33,4738.53 5329.29,4733.09 5327.7,4728.22L5324.34,4718.1C5318.31,4699.86 5312.63,4682.64 5307.58,4665.38C5306.42,4661.41 5305.21,4657.43 5303.99,4653.46C5301.95,4646.73 5300.01,4640.36 5298.54,4634.66L5288.82,4596.6C5283.95,4577.47 5279.81,4557.98 5275.65,4538.04C5271.31,4517.35 5267.9,4495.95 5264.85,4475.92C5261.64,4454.91 5259.22,4435.78 5257.45,4417.43C5255.25,4394.64 5253.39,4374.12 5252.63,4353.81C5251.72,4329.72 5251.32,4307.96 5251.39,4287.29C5251.44,4269.98 5252.17,4251.29 5253.77,4226.7C5254.52,4214.99 5255.53,4203.18 5256.74,4191.39L5269.87,4189.58Z" style="fill:white;"/>
                <path d="M7559.85,4739.43L7615.13,4801.97C7618.45,4805.72 7621.79,4809.45 7625.13,4813.19C7632.73,4821.69 7639.91,4829.71 7646.54,4837.67L7701.25,4903.39C7704.11,4906.84 7707,4910.27 7709.89,4913.7C7717.18,4922.38 7724.06,4930.57 7730.42,4938.68L7784.19,5007.36C7786.56,5010.36 7788.95,5013.39 7791.33,5016.42C7798.41,5025.4 7805.1,5033.89 7811.28,5042.29L7835.52,5075.2C7833.42,5076.47 7831.34,5077.76 7829.21,5078.99C7814.29,5087.65 7797.15,5096.36 7776.82,5105.62C7761.24,5112.71 7743.79,5119.56 7721.9,5127.18C7704.16,5133.34 7686.22,5138.64 7668.59,5142.95C7650.73,5147.3 7632.56,5151.16 7614.44,5154.51L7603.84,5111C7600.65,5097.9 7597.2,5085.15 7593.86,5072.81L7569.22,4981.16C7565.72,4968.16 7561.96,4955.64 7558.32,4943.53C7556.88,4938.74 7555.45,4933.95 7554.03,4929.16L7532.23,4855.16C7527.94,4840.61 7523.3,4826.56 7518.82,4812.99C7516.74,4806.71 7514.67,4800.43 7512.65,4794.15C7510.6,4787.78 7508.61,4781.39 7506.61,4775C7502.28,4761.15 7497.8,4746.83 7492.72,4732.3L7467.31,4659.59C7465.82,4655.32 7464.34,4651.03 7462.86,4646.75C7461.02,4641.39 7459.13,4635.94 7457.2,4630.44C7461.8,4635.03 7466.23,4639.55 7470.45,4644.05L7525.9,4703.14C7529.67,4707.16 7533.47,4711.15 7537.26,4715.14C7545.29,4723.57 7552.86,4731.53 7559.85,4739.43Z" style="fill:white;"/>
                <path d="M7857.25,4160.71C7870.75,4176.78 7884.27,4194.7 7896.19,4210.5C7903.6,4220.32 7910.79,4230.68 7918.12,4241.48C7896.9,4238.98 7874.5,4236.56 7849.89,4234.09C7825.49,4231.65 7805.48,4229.97 7786.91,4228.81L7775.06,4228.06C7756.81,4226.9 7737.94,4225.7 7718.97,4224.86C7693.94,4223.75 7673.48,4223.07 7654.57,4222.72L7576.03,4221.27C7569.65,4221.15 7563.8,4221.3 7558.64,4221.43C7556.67,4221.47 7554.7,4221.52 7552.74,4221.55L7495.92,4222.38L7505.04,4215.54C7517.1,4206.5 7529.46,4197.73 7542.55,4188.43C7549.21,4183.7 7555.87,4178.97 7562.49,4174.2C7574.59,4165.5 7586.95,4157.06 7600.05,4148.13C7604.57,4145.04 7609.1,4141.95 7613.61,4138.85C7629.51,4127.93 7645.48,4117.4 7664.59,4104.95C7683.36,4092.71 7700.73,4081.71 7717.7,4071.31C7730.7,4063.33 7742.33,4056.33 7753.19,4049.92C7759.03,4055.43 7765.06,4061.21 7771.32,4067.3C7784.34,4079.97 7798.39,4094.47 7815.52,4112.92C7830.34,4128.87 7844.94,4146.03 7857.25,4160.71Z" style="fill:white;"/>
                <path d="M5608.53,3277.75C5652.33,3269.29 5696.93,3261.73 5741.1,3255.29C5770.43,3251.01 5800.12,3247.18 5829.78,3243.76C5808.07,3252.24 5787.07,3261.09 5767.43,3270.06C5745.47,3280.06 5723.99,3290 5702.23,3301.48C5680.27,3313.08 5658.69,3325.01 5638.09,3336.94C5616.51,3349.45 5595.74,3363.02 5578.27,3374.65C5559.57,3387.11 5540.36,3400.83 5521.2,3415.44C5519.81,3416.51 5518.47,3417.55 5517.08,3418.6C5515.42,3418.41 5513.75,3418.22 5512.09,3418.04C5493.46,3415.98 5474.98,3414.4 5457.14,3412.88L5443.98,3411.76C5424.62,3410.08 5404.03,3408.83 5381.01,3407.95C5358.67,3407.09 5332.64,3406.15 5306.37,3405.79C5281.81,3405.45 5257.37,3405.72 5233.75,3405.99L5233.24,3405.99C5212.85,3406.22 5192.02,3406.99 5171.4,3408.28C5169.43,3408.41 5167.44,3408.53 5165.44,3408.66C5188.47,3399.06 5209.92,3390.41 5230.9,3382.27C5251.01,3374.46 5267.47,3368.47 5282.72,3363.41C5302.89,3356.7 5326.66,3348.87 5350.24,3341.64C5367.43,3336.38 5384.69,3331.55 5402.97,3326.43L5411.12,3324.14C5415.03,3323.04 5418.79,3321.66 5422.4,3320.05C5440.96,3315.2 5459.53,3310.49 5478.06,3306.03C5521.1,3295.67 5564.99,3286.15 5608.53,3277.75Z" style="fill:white;"/>
                <path d="M8034.7,5367.78L8082.1,5446.2C8089.82,5458.98 8096.54,5470.44 8102.64,5481.24L8147.73,5561.23C8153.53,5571.53 8159.71,5582.96 8167.2,5597.28L8209.48,5677.97C8215.17,5688.85 8220.62,5700.11 8226.4,5712.02L8266.93,5795.67C8271.54,5805.19 7734.05,5796.39 7734.05,5796.39L7731.15,5773.64C7729.6,5761.32 7727.99,5748.6 7726.05,5735.67L7712.01,5642C7710.03,5628.78 7707.99,5615.07 7705.59,5601.21L7690.15,5511.68C7687.71,5497.57 7685.08,5482.5 7682.06,5467.08L7664.44,5377.04C7661.48,5361.92 7658.4,5347.06 7655.29,5332.87L7650.74,5312.1C7669.53,5308.49 7688.33,5304.4 7706.85,5299.88C7729.46,5294.38 7752.38,5287.61 7774.96,5279.74C7801.68,5270.45 7823.55,5261.84 7843.77,5252.63C7868.97,5241.14 7890.72,5230.06 7910.27,5218.73C7916.79,5214.94 7923.22,5211.06 7929.57,5207.14L7942.87,5226.4C7950.15,5236.95 7957.04,5246.9 7963.48,5256.87L8012.8,5333.12C8020.4,5344.89 8027.8,5356.37 8034.7,5367.78Z" style="fill:white;"/>
                <path d="M6391.12,3893.19C6399.63,3882.52 6409.17,3871.87 6419.57,3861.42C6421.03,3862.18 6422.52,3862.92 6424.01,3863.68C6430.07,3866.79 6436.15,3869.85 6442.26,3872.92C6454.7,3879.19 6466.47,3885.11 6477.75,3891.27L6558.98,3935.61C6569.88,3941.52 6580.15,3947.1 6589.9,3952.86L6667.39,3998.69C6680.03,4006.16 6691.72,4013.33 6703.11,4020.58L6779.61,4069.37C6789.99,4075.97 6800.34,4083.06 6811.32,4090.58L6852.97,4119.07L6803.47,4107.48C6798.49,4106.31 6793.52,4105.11 6788.55,4103.91C6776.31,4100.95 6763.66,4097.89 6750.38,4095.2L6668.58,4078.59C6663.98,4077.66 6659.39,4076.7 6654.79,4075.74C6642.73,4073.22 6630.28,4070.61 6617.26,4068.37L6532.98,4053.84C6528.81,4053.13 6524.67,4052.39 6520.51,4051.66C6508.47,4049.52 6496.03,4047.32 6483.05,4045.48L6396.7,4033.26C6393.07,4032.74 6389.43,4032.22 6385.82,4031.69C6373.68,4029.93 6361.13,4028.11 6348.08,4026.66L6317.64,4023.27C6321.91,4011.61 6326.5,4000.07 6331.55,3988.83C6338.72,3972.83 6347.18,3956.97 6356.72,3941.68C6367.04,3925.13 6378.3,3909.27 6391.12,3893.19Z" style="fill:white;"/>
                <path d="M7010.85,3749.64C6996.39,3729.54 6983.06,3711.35 6970.29,3694.23C6974.91,3694.57 6979.48,3694.95 6983.99,3695.39C7009.24,3697.84 7029.53,3700.26 7047.88,3703.01C7069.01,3706.19 7090.31,3709.95 7111.19,3714.19C7130.17,3718.05 7150.54,3722.77 7173.48,3728.64C7189.18,3732.66 7204.58,3737.1 7218.69,3741.35C7218.59,3753.95 7218.31,3767.52 7217.93,3782.77C7217.4,3802.63 7216.54,3823.18 7215.33,3845.6C7214.12,3868.39 7212.98,3887.51 7211.47,3906.67C7211.04,3912.16 7210.64,3917.66 7210.21,3923.15C7209.02,3938.93 7207.91,3953.83 7206.42,3968.64C7205.59,3976.76 7204.83,3984.88 7204.07,3993.01C7202.56,4008.99 7201.15,4024.09 7199.35,4039.06L7197.99,4050.39L7170.3,4000.76C7169.32,3999.03 7168.38,3997.3 7167.45,3995.56C7164.98,3991.03 7162.17,3985.89 7158.89,3980.44L7118.38,3913.15C7108.64,3896.98 7097.81,3879.59 7084.3,3858.44C7074.11,3842.44 7063.63,3826.71 7053.51,3811.5L7046.92,3801.57C7036.32,3785.63 7024.53,3768.64 7010.85,3749.64Z" style="fill:white;"/>
                <path d="M8741.51,7342.16C8742.27,7333.2 8836.83,7356.63 8831.94,7364.14C8825.06,7374.71 8818.07,7385.16 8811.3,7395.23C8801.21,7410.24 8789.94,7425.97 8777.82,7441.95C8761.55,7463.43 8748.83,7479.63 8736.6,7494.55C8731.47,7500.81 8726.03,7507.27 8720.19,7514.11C8723.18,7495.13 8726.18,7475.7 8728.79,7456.08C8732.32,7429.56 8735.24,7403.61 8737.63,7381.7C8739.2,7367.34 8740.47,7354.35 8741.51,7342.16Z" style="fill:white;"/>
                <path d="M4345.85,4448.77C4359.81,4442.38 4372.31,4436.75 4384.09,4431.55C4405.9,4421.94 4427.74,4412.78 4448.23,4404.22C4463.35,4397.9 4478.57,4391.94 4494.68,4385.62C4499.57,4383.69 4504.5,4381.77 4509.39,4379.84C4528.96,4372.12 4546.93,4365.4 4564.29,4359.29C4570.55,4357.1 4576.79,4354.87 4583.05,4352.64C4596.4,4347.87 4609.02,4343.37 4621.64,4339.2C4626.99,4337.43 4632.35,4335.65 4637.69,4333.88C4653.6,4328.58 4668.62,4323.58 4683.81,4318.87L4689.47,4317.11C4709.91,4310.77 4729.2,4304.78 4748.81,4299.08C4773.65,4291.87 4795.38,4285.74 4815.22,4280.35C4833.52,4275.38 4850.86,4270.91 4868.23,4266.69L4953.54,4245.94C4963.92,4243.42 4974.87,4241.22 4986.48,4238.88C4991.25,4237.93 4996.02,4236.97 5000.8,4235.98L5077.23,4220.16C5079.22,4219.75 5082,4219.3 5084.92,4218.82C5086.87,4218.5 5088.81,4218.19 5090.73,4217.86L5092.47,4217.56C5090.73,4244.95 5089.92,4266.34 5089.85,4286.76C5089.77,4309.63 5090.23,4333.53 5091.18,4359.83C5092.12,4384.49 5094.29,4408.46 5096.64,4432.89C5098.71,4454.24 5101.48,4476.28 5105.14,4500.27C5108.55,4522.58 5112.39,4546.59 5117.51,4571.08C5121.88,4591.99 5126.62,4614.27 5132.3,4636.57L5142.02,4674.61C5144.39,4683.9 5147.09,4692.73 5149.47,4700.52C5150.5,4703.92 5151.54,4707.31 5152.52,4710.71C5158.35,4730.68 5164.76,4750.06 5170.97,4768.81L5174.25,4778.73C5176.9,4786.8 5179.76,4794.44 5182.31,4801.17C5183.27,4803.77 5184.25,4806.36 5185.21,4808.96C5186.12,4811.44 5187.03,4813.95 5187.91,4816.45C5190.31,4823.12 5193.01,4830.67 5196.14,4838.4L5200.61,4849.48C5203.28,4856.11 5205.98,4862.85 5208.76,4869.62L5160.42,4895.03C5148.31,4901.4 5136.67,4907.95 5125.44,4914.28C5120.47,4917.07 5115.52,4919.86 5110.54,4922.62L5043.12,4960C5030.53,4966.99 5018.41,4974.19 5006.73,4981.13C5001.32,4984.34 4995.92,4987.54 4990.5,4990.7L4928.28,5027.05C4914.82,5034.9 4901.87,5042.97 4889.38,5050.8C4883.47,5054.48 4877.59,5058.17 4871.66,5061.8C4865.68,5065.49 4859.67,5069.12 4853.66,5072.76C4840.97,5080.43 4827.82,5088.36 4814.64,5096.89L4754.08,5136.04C4749.04,5139.29 4743.94,5142.53 4738.86,5145.78C4727.53,5152.98 4715.82,5160.45 4704.06,5168.45L4638,5213.35C4634.04,5216.05 4630.05,5218.73 4626.09,5221.4C4615.73,5228.37 4605.03,5235.57 4594.28,5243.29L4519.01,5297.13C4507.88,5305.11 4496.34,5313.33 4484.83,5322.02L4477.97,5327.19C4477.66,5326.48 4477.39,5325.8 4477.11,5325.12C4470.09,5307.7 4461.99,5287.46 4454.62,5267.39L4451.49,5258.86C4445.05,5241.4 4438.99,5224.89 4433.54,5208.35C4431.9,5203.36 4430.24,5198.38 4428.6,5193.41C4423.35,5177.64 4418.37,5162.74 4414.06,5147.93C4412.29,5141.89 4410.5,5135.89 4408.68,5129.85C4404.16,5114.68 4399.87,5100.35 4396.26,5086.24C4394.67,5080.05 4393.06,5073.84 4391.47,5067.63C4387.05,5050.7 4382.91,5034.72 4379.25,5018.72C4374.7,4998.72 4369.93,4977.37 4366,4956.64C4361.93,4935.37 4358.05,4914.57 4354.86,4893.92L4354.76,4893.26C4351.43,4871.5 4348.3,4850.95 4345.93,4830.45C4343.51,4809.47 4341.03,4787.78 4339.39,4766.61C4337.73,4744.84 4336.16,4723.55 4335.35,4702.56C4334.47,4678.4 4333.86,4658.19 4333.91,4638.12C4333.99,4612.82 4334.39,4592.23 4335.23,4573.31C4336.16,4551.47 4337.57,4529.71 4339.37,4508.63C4340.88,4490.73 4342.98,4471.57 4345.85,4448.77Z" style="fill:white;"/>
                <path d="M6636.09,3793.64L6569.65,3757.39C6591.41,3747.47 6608.07,3740.62 6623.55,3735.2C6644.92,3727.74 6666.94,3721.38 6683.69,3716.66C6698.94,3712.38 6716.66,3708.54 6739.45,3704.56C6749.05,3702.88 6758.81,3701.34 6768.86,3699.92C6777.62,3710.41 6786.33,3721.08 6795.39,3732.2L6800.06,3737.93C6812.68,3753.42 6825,3769.73 6836.53,3785.1C6850.04,3803.13 6864.17,3822.39 6879.72,3844C6892.22,3861.36 6902.89,3876.72 6912.36,3890.96L6919.02,3901.01C6929.17,3916.25 6938.76,3930.65 6948.12,3945.33C6960.87,3965.28 6970.99,3981.54 6979.98,3996.49L6994.42,4020.47C6989.34,4016.79 6984.17,4013.1 6978.79,4009.43L6902.59,3957.29C6891.03,3949.37 6879.06,3941.17 6866.44,3933.14L6789.94,3884.36C6777.01,3876.13 6763.84,3868.04 6749.63,3859.64L6672.11,3813.81C6659.84,3806.55 6647.78,3799.99 6636.09,3793.64Z" style="fill:white;"/>
                <path d="M8997.77,5332.06C9004.3,5354.07 9010.59,5376.29 9016.64,5398.57C9017.05,5401.3 9017.59,5404 9018.29,5406.73C9018.29,5406.73 8920.85,5414.73 8918.22,5410.97C8908.22,5396.58 8897.87,5381.74 8887.02,5366.97C8885.8,5365.31 8884.6,5363.69 8883.39,5362.05C8885.09,5349.1 8886.64,5336.18 8888.01,5323.4C8890.64,5298.87 8891.84,5274.54 8892.84,5251.74C8893.77,5230.59 8894,5207.85 8893.54,5182.2C8893.04,5154.49 8892.12,5133.03 8890.54,5112.59C8888.71,5088.91 8886.38,5064.88 8883.42,5039.16C8882.08,5027.5 8880.5,5016.07 8878.69,5004.2C8890.06,5030.53 8901.12,5057.08 8911.66,5083.59C8927.75,5124.02 8943.14,5165.42 8957.41,5206.56C8971.74,5247.91 8985.32,5290.14 8997.77,5332.06Z" style="fill:white;"/>
                <path d="M5557.4,9057.25C5514.16,9048.11 5470.54,9037.84 5427.75,9026.74C5424.52,9025.9 5421.29,9025.02 5418.06,9024.16C5422.07,9020.85 5426.01,9017.55 5429.93,9014.24L5430.56,9013.74C5450.6,8996.9 5468.77,8978.63 5484.82,8962.52C5502.27,8945 5517.74,8928.47 5532.08,8911.96L5539.07,8903.96C5550.93,8890.38 5563.18,8876.32 5575.16,8861.25C5579.3,8856.03 5583.49,8850.83 5587.71,8845.63C5597.6,8833.39 5607.83,8820.72 5617.85,8807.26C5622.09,8801.58 5626.35,8795.95 5630.65,8790.3C5640.16,8777.73 5650.01,8764.73 5659.65,8751.05C5661.97,8747.77 5664.29,8744.51 5666.64,8741.23L5686.13,8747.79C5702.28,8753.22 5718.31,8758.14 5733.81,8762.91L5741.4,8765.26C5746.81,8766.93 5752.21,8768.62 5757.64,8770.33C5771.69,8774.75 5786.26,8779.32 5801.25,8783.56L5881.95,8806.33C5897.12,8810.59 5912.09,8814.33 5926.55,8817.94C5932.61,8819.45 5938.64,8820.97 5944.7,8822.51C5964.24,8827.51 5981.93,8831.97 6000.43,8836.24C6008.26,8838.03 6016.06,8839.87 6023.88,8841.74C6040.29,8845.65 6057.28,8849.69 6074.74,8853.23L6149.89,8868.45C6167.43,8872.01 6184.85,8875.09 6201.68,8878.04L6207.69,8879.1C6212.94,8880.03 6218.17,8880.97 6223.37,8881.93C6238.21,8884.6 6253.53,8887.38 6269.26,8889.73L6349.95,8901.84C6366.41,8904.32 6382.54,8906.18 6398.16,8907.98C6405.23,8908.81 6412.32,8909.61 6419.39,8910.5C6436.88,8912.64 6455.34,8914.64 6477.42,8916.78C6483.66,8917.39 6489.87,8918.02 6496.07,8918.68C6511.24,8920.22 6526.9,8921.83 6543.02,8922.97L6624.5,8928.62C6641.01,8929.76 6657.12,8930.31 6672.69,8930.82C6679.53,8931.07 6686.4,8931.3 6693.24,8931.58C6710.83,8932.31 6729.79,8932.79 6752.88,8933.09C6758.61,8933.17 6764.34,8933.27 6770.05,8933.39C6781.33,8933.59 6792.91,8933.8 6804.7,8933.8C6809.07,8933.8 6813.46,8933.77 6817.88,8933.7L6854,8933.14C6848.57,8937.43 6843.17,8941.65 6837.77,8945.68C6822.78,8956.94 6804.98,8970.07 6786.58,8982.21C6766.01,8995.79 6750.28,9005.46 6735.62,9013.64C6716.13,9024.46 6697.53,9034.13 6678.7,9043.19C6660.25,9052.05 6640.81,9059.83 6622.56,9066.92C6603.53,9074.29 6583.16,9080.5 6565.74,9085.6C6549.34,9090.42 6531.16,9094.74 6508.57,9099.15C6490.24,9102.74 6470.86,9105.64 6450.92,9107.74L6441.28,9108.75C6439.94,9108.87 6438.6,9109.05 6437.29,9109.25C6415.56,9111.22 6393.77,9112.93 6372.11,9114.4C6326.63,9117.45 6280.36,9119.5 6234.62,9120.48C6213.45,9120.94 6191.97,9121.16 6170.79,9121.16C6145.95,9121.16 6120.78,9120.84 6095.97,9120.23C6050.26,9119.07 6004.04,9116.87 5958.58,9113.64C5913.4,9110.41 5867.76,9106.12 5822.94,9100.84C5778.36,9095.62 5733.35,9089.28 5689.15,9082.01C5645.23,9074.8 5600.91,9066.47 5557.4,9057.25Z" style="fill:white;"/>
                <path d="M5111.48,3574.58C5135.03,3572.48 5158.98,3570.92 5181.47,3569.51C5199.37,3568.4 5217.42,3567.73 5235.09,3567.53L5235.57,3567.52C5259.24,3567.25 5281.61,3567.01 5304.12,3567.32C5322.02,3567.56 5340.09,3568.11 5356.9,3568.71C5342.66,3585.08 5329.57,3600.51 5316.69,3617.46C5303.29,3635.12 5288.09,3655.12 5274.03,3676.51C5262.47,3694.12 5248.89,3715.16 5235.84,3737.77C5222.92,3760.17 5211.41,3782.55 5201.89,3801.5C5190.59,3823.94 5181.22,3846.21 5172.13,3867.75L5172.03,3868.03C5162.19,3891.38 5154.36,3914.24 5146.77,3936.36C5138.36,3960.92 5131.62,3985.91 5126.22,4005.99C5122.23,4020.8 5118.87,4035.42 5115.87,4049.63L5063.39,4058.64C5061.95,4058.89 5060.49,4059.12 5059.05,4059.36C5054.74,4060.06 5049.86,4060.85 5044.46,4061.97L4968.03,4077.79C4963.59,4078.71 4959.12,4079.61 4954.65,4080.5C4942.01,4083.05 4928.91,4085.68 4915.35,4088.97L4830.06,4109.72C4811.56,4114.22 4792.32,4119.17 4772.91,4124.44C4752.11,4130.09 4729.5,4136.47 4703.73,4143.95C4682.7,4150.07 4661.8,4156.55 4641.58,4162.83L4635.93,4164.58C4619.2,4169.78 4602.66,4175.27 4586.68,4180.59C4581.46,4182.33 4576.23,4184.07 4571.01,4185.8C4556.54,4190.57 4542.41,4195.61 4528.75,4200.49C4522.75,4202.63 4516.76,4204.77 4510.76,4206.88C4491.42,4213.67 4471.61,4221.09 4450.1,4229.56C4445.31,4231.46 4440.48,4233.34 4435.69,4235.23C4419.48,4241.58 4402.75,4248.15 4386.01,4255.14C4391.19,4237.51 4396.21,4220.67 4401.79,4204.3C4410.17,4179.81 4417.26,4160.27 4424.13,4142.81C4431.68,4123.66 4440.08,4103.78 4449.82,4082.03C4458.2,4063.33 4467.34,4045.03 4477.56,4024.75C4486.15,4007.66 4495.38,3990.78 4504.98,3974.56L4506.62,3971.81C4516.97,3954.29 4526.76,3937.75 4537.11,3921.97C4551.55,3899.91 4562.88,3883.32 4573.86,3868.15C4585.62,3851.88 4598.72,3834.66 4613.94,3815.5C4626.39,3799.83 4639.44,3784.76 4655.19,3766.69C4668.49,3751.45 4681.84,3737.12 4694.87,3724.1L4699.59,3719.38C4712.97,3705.99 4725.59,3693.35 4738.49,3681.55C4755.5,3665.97 4770.87,3652.03 4786.34,3639.1L4788.72,3637.11C4789.55,3636.41 4790.36,3635.75 4791.16,3635.06C4793.46,3634.39 4795.76,3633.71 4798.08,3633.03C4819.13,3626.86 4840.28,3621.34 4862.7,3615.5L4863.1,3615.39C4881.4,3610.61 4900.36,3606.65 4918.1,3603.08C4940.77,3598.53 4964.17,3594.19 4989.69,3589.81C5010.01,3586.32 5027.73,3583.72 5043.81,3581.85L5045.52,3581.65C5068.29,3579.01 5089.8,3576.51 5111.48,3574.58Z" style="fill:white;"/>
                <path d="M5419.17,7337.75C5425.26,7337.65 5419.43,7418.24 5418.49,7437.79C5417.02,7468.74 5420.5,7644.34 5411.02,7639.01L5352.59,7612.38C5340.6,7605.61 5328.66,7598.52 5316.04,7591L5305.66,7584.82C5300.66,7581.86 5295.67,7578.93 5290.69,7576.01C5278.55,7568.89 5267.09,7562.15 5255.96,7555.21L5183.92,7510.23C5172.77,7503.29 5161.68,7495.94 5149.97,7488.17C5144.95,7484.83 5139.95,7481.53 5134.93,7478.25L5125.84,7472.29C5113.27,7464.06 5101.41,7456.31 5089.82,7448.28L5021.85,7401.41C5010.59,7393.66 4999.41,7385.43 4987.54,7376.7C4981.66,7372.38 4975.78,7368.04 4969.87,7363.78C4959.54,7356.28 4948.62,7348.32 4937.7,7340.15C4936.34,7339.13 5158.77,7341.78 5419.17,7337.75Z" style="fill:white;"/>
                <path d="M5948.76,7894.05C5936.35,7889.51 5923.85,7884.56 5910.6,7879.28C5904.62,7876.91 5898.63,7874.54 5892.65,7872.19L5887.58,7870.22C5872.13,7864.16 5857.54,7858.48 5843.1,7852.43L5769.35,7821.56C5756.12,7816.03 5742.84,7809.99 5728.81,7803.58C5721.62,7800.33 5714.42,7797.05 5707.23,7793.82C5690.74,7786.47 5675.4,7779.4 5660.28,7772.23C5652.93,7768.75 6032.41,7766.65 6029.18,7773.27L5966.64,7900.54L5948.76,7894.05Z" style="fill:white;"/>
                <path d="M3683.39,4900.59C3702.17,4881.97 3717.97,4866.47 3734.05,4851.33C3749.85,4836.46 3765.93,4822.09 3782.97,4806.88L3784.76,4805.28C3798.11,4793.35 3811.89,4781.63 3825.73,4770.44L3827.47,4769.03C3845.37,4754.56 3862.28,4740.89 3879.62,4727.53C3899.41,4712.3 3919.52,4697.48 3936.56,4684.99C3955.09,4671.42 3970.21,4660.79 3984.14,4651.54C3988.79,4648.44 3993.46,4645.34 3998.1,4642.23C4010.77,4633.75 4022.76,4625.74 4034.85,4618.09C4052.8,4606.73 4073.7,4593.57 4094.47,4581.07C4115.2,4568.61 4136.73,4556.23 4155.31,4545.61C4161.94,4541.8 4168.68,4538.07 4175.52,4534.31C4174.87,4544.92 4174.29,4555.58 4173.83,4566.27C4172.9,4587.46 4172.44,4610.17 4172.37,4637.73C4172.32,4660.47 4172.95,4682.5 4173.93,4708.59C4174.82,4732.53 4176.51,4755.56 4178.33,4779.01C4180.19,4803.22 4182.97,4827.49 4185.44,4848.91C4188.15,4872.41 4191.68,4895.45 4195.09,4917.72L4195.19,4918.39C4198.77,4941.71 4202.96,4964.09 4207.3,4986.89C4211.74,5010.11 4216.87,5033.15 4221.74,5054.61C4225.93,5072.96 4230.6,5090.91 4235.09,5108.25C4236.66,5114.23 4238.22,5120.24 4239.74,5126.24C4244.16,5143.51 4249.1,5160.07 4253.9,5176.1C4255.61,5181.82 4257.33,5187.56 4259,5193.31C4264.17,5210.95 4269.83,5227.97 4275.3,5244.42C4276.92,5249.22 4278.51,5254.04 4280.1,5258.86C4286.41,5278.05 4293.25,5296.65 4299.86,5314.62L4302.97,5323.03C4311.15,5345.32 4319.8,5367 4327.3,5385.57C4333.36,5400.57 4339.34,5414.93 4345.4,5429.02L4305.39,5460.77C4294.64,5469.3 4284.42,5477.93 4274.52,5486.24C4271.52,5488.76 4268.51,5491.31 4265.51,5493.81L4205.18,5537.18C3653.2,5511.62 3690.61,5583.73 3686.12,5561.21C3681.6,5538.65 3677.56,5487.1 3673.8,5465.31C3670.16,5444.19 3667.16,5422.48 3664.91,5405.92C3661.89,5383.38 3659.49,5364.5 3657.67,5345.62L3656.71,5335.8C3654.79,5315.93 3652.95,5297.13 3651.89,5278.55C3650.48,5253.91 3649.39,5231.3 3648.56,5209.36C3647.8,5189.52 3647.85,5169.46 3647.88,5148.2L3647.88,5147.27C3647.9,5128.06 3648.38,5108.32 3649.29,5086.97C3650.12,5068.19 3651.13,5046.4 3652.95,5025.35L3653.68,5016.75C3655.3,4997.69 3656.81,4979.67 3659.11,4962.12C3661.05,4947.13 3662.89,4933.08 3664.84,4919.44C3670.9,4913.14 3677.08,4906.84 3683.39,4900.59Z" style="fill:white;"/>
                <path d="M8458.69,7755.47C8442.1,7767.59 8425.28,7779.33 8408.7,7790.38C8389.49,7803.18 8373.32,7813.78 8356.87,7823.8L8351.14,7827.28C8333.76,7837.86 8317.34,7847.86 8300.77,7857.07C8280.06,7868.56 8259.21,7879.84 8238.8,7890.62C8221.9,7899.55 8204.45,7907.91 8185.98,7916.74L8181.85,7918.71C8165.28,7926.66 8147.45,7934.76 8127.32,7943.47C8109.69,7951.1 8089.72,7959.75 8070.42,7967.28C8048.88,7975.68 8026.97,7983.98 8003.41,7992.67C7985.33,7999.33 7966.86,8005.39 7947.31,8011.8L7942.53,8013.37C7923.34,8019.68 7907.31,8024.78 7891.5,8029.22L7848.56,8041.23C7845.2,8042.19 7841.85,8043.18 7838.5,8044.14C7833.07,8045.73 7827.95,8047.24 7823.53,8048.3L7750.08,8066.2C7736.78,8069.45 7722.93,8072.2 7708.26,8075.16C7701.39,8076.52 7694.53,8077.91 7687.68,8079.32C7669.98,8083.01 7652.06,8086.14 7633.08,8089.44L7628.94,8090.15C7609.76,8093.51 7591.64,8096.64 7573.52,8099.19C7568.53,8099.89 7563.54,8100.65 7558.55,8101.38C7559.15,8099.57 7559.76,8097.72 7560.39,8095.83L7585.31,8020C7587.14,8014.45 7588.61,8009.3 7589.9,8004.73C7590.38,8003.07 7590.86,8001.38 7591.35,7999.71L7604.65,7954.53C7605.97,7950.03 7607.32,7945.54 7608.67,7941.02C7612.57,7928 7616.6,7914.52 7620.29,7900.49L7642.61,7815.27C7646.7,7799.67 7650.31,7784.5 7654.49,7766.48L7673.4,7684.85C7676.72,7670.56 7679.44,7656.6 7682.06,7643.1C7683.2,7637.24 7684.34,7631.41 7685.52,7625.58C7686.86,7618.99 7688.25,7612.4 7689.64,7605.82C7692.67,7591.48 7695.81,7576.64 7698.5,7561.27L7712,7484.2C7712.69,7480.24 7713.4,7476.3 7714.1,7472.34C7716.37,7459.64 7718.71,7446.49 7720.72,7432.91L7728.24,7382.23L7735.92,7381.39C7752.99,7379.55 7769.46,7377.1 7785.39,7374.73C7792.13,7373.72 7798.87,7372.71 7805.61,7371.75C7823.08,7369.3 7839.98,7366.28 7856.32,7363.32C7862.09,7362.29 7867.85,7361.25 7873.62,7360.24C7892.36,7356.99 7910.58,7353.15 7928.19,7349.44C7932.32,7348.58 7936.44,7347.72 7940.56,7346.86C7962.4,7342.3 7983.72,7337.1 8004.33,7332.07L8007.11,7331.42C8030.35,7325.74 8052.68,7319.58 8073.35,7313.8L8077.35,7312.66C8097.27,7307.08 8117.87,7301.3 8138.71,7294.44C8160.82,7287.17 8183.11,7279.62 8204.95,7272C8224.22,7265.28 8242.84,7258.01 8260.85,7250.97L8270.98,7247.01C8289.47,7239.82 8307.28,7232.09 8324.5,7224.59L8335.54,7219.82C8353.62,7212 8370.93,7203.67 8387.67,7195.62C8391.34,7193.85 8395.01,7192.08 8398.68,7190.32C8408.03,7185.84 8420.89,7167.94 8426.46,7176.58C8445.47,7206.03 8584.3,7274.24 8583.29,7289.44C8582.92,7295.02 8582.55,7300.62 8582.2,7306.2C8581.12,7323.34 8579.48,7341.77 8577.04,7364.18C8574.75,7385.13 8571.97,7409.92 8568.66,7434.76C8565.77,7456.41 8562.38,7477.84 8558.8,7500.53L8558.43,7502.81C8555.54,7521.13 8552.29,7538.93 8548.78,7555.74L8548.28,7558.14C8543.61,7580.5 8539.2,7601.6 8534.23,7622.73C8529.16,7644.23 8523.64,7665.64 8516.91,7691.19C8514.6,7699.94 8512.24,7708.45 8509.85,7716.7C8509.21,7717.21 8508.54,7717.76 8507.9,7718.27C8491.15,7731.65 8473.62,7744.57 8458.69,7755.47Z" style="fill:white;"/>
                <path d="M5785.17,3462.76C5775.18,3460.5 5765.21,3458.39 5755.34,3456.35C5762.71,3452.32 5770.13,3448.31 5777.65,3444.34C5795.6,3434.87 5814.76,3426.02 5834.44,3417.03C5851.46,3409.28 5869.71,3401.59 5888.72,3394.17C5910.98,3385.47 5930.82,3378.2 5949.4,3371.91C5969.66,3365.05 5987.94,3359.36 6005.28,3354.49L6043.75,3343.69C6049.3,3342.14 6055.61,3340.67 6062.32,3339.11C6066.24,3338.2 6070.18,3337.28 6074.09,3336.32C6092.09,3331.93 6110.39,3328.14 6129.75,3324.13L6139.03,3322.21C6144.06,3321.16 6149.76,3320.21 6155.8,3319.2C6158.82,3318.7 6161.83,3318.2 6164.86,3317.68C6167.99,3317.13 6171.14,3316.56 6174.3,3315.98C6180.38,3314.87 6186.11,3313.83 6191.23,3313.12C6195.63,3312.49 6200.04,3311.86 6204.46,3311.23C6222.15,3308.71 6238.89,3306.32 6255.5,3304.53L6273.87,3302.54C6290.91,3309.92 6304.74,3316.44 6316.96,3322.82C6320.7,3324.78 6324.48,3326.71 6328.27,3328.63C6334.73,3331.93 6340.86,3335.05 6346.24,3338.09L6378.53,3356.33C6393.87,3365 6409.3,3375.1 6425.63,3385.79L6430.95,3389.26C6446.88,3399.67 6462.48,3410.52 6477.3,3421.51C6493.4,3433.46 6510.84,3446.85 6532.2,3463.65C6546.76,3475.09 6561.1,3487.7 6576.27,3501.05L6579.5,3503.89C6593.73,3516.41 6608.8,3529.76 6622.71,3543.3C6629.2,3549.61 6635.13,3555.43 6640.73,3560.94C6640.51,3561.01 6640.26,3561.07 6640.03,3561.14C6620.99,3566.48 6595.88,3573.76 6570.28,3582.7C6549.79,3589.86 6528.69,3598.5 6501.93,3610.72C6479.04,3621.17 6456.85,3632.88 6436,3645.53C6420.83,3654.74 6407.91,3663.03 6396.22,3671.06C6391.12,3668.7 6386,3666.35 6380.8,3664.03C6375.88,3661.84 6370.98,3659.65 6366.08,3657.45C6350.36,3650.4 6334.13,3643.11 6317.62,3636.12L6316.89,3635.81C6295.58,3626.78 6273.55,3617.45 6251.36,3608.53C6228.94,3599.53 6206.13,3590.62 6183.53,3582.05C6161.6,3573.72 6139.49,3565.81 6118.11,3558.15L6116.07,3557.42C6099.86,3551.62 6083.68,3546.23 6068.06,3541.02C6062.7,3539.24 6057.38,3537.46 6052.05,3535.67C6031.98,3528.92 6011.82,3522.58 5992.18,3516.83C5986.75,3515.25 5981.32,3513.65 5975.92,3512.04C5960.38,3507.44 5944.3,3502.69 5927.91,3498.26C5902.93,3491.51 5880.36,3485.46 5857.36,3479.75C5836.39,3474.54 5813.44,3469.14 5785.17,3462.76Z" style="fill:white;"/>
                <path d="M7437.92,5114.99C7441.13,5126.88 7444.17,5138.11 7446.89,5149.26L7451.34,5167.51C7445.87,5167.44 7440.5,5167.39 7435.49,5167.31C7416.89,5167.06 7397.93,5166.02 7379.12,5164.21L7372.49,5163.58C7353.55,5161.76 7335.68,5160.07 7318.47,5157.47L7316.27,5157.14C7295.35,5154.01 7275.61,5151.03 7256.5,5147.17C7235.27,5142.85 7214.6,5138.56 7194.78,5133.49C7181.23,5130.01 7167.07,5126.29 7152.96,5122.28L7189.43,4976.56C7191.45,4968.51 7193.52,4959.78 7195.97,4949.06L7235.3,4776.97C7236.13,4773.39 7236.96,4769.81 7237.82,4766.22C7239.82,4757.68 7241.91,4748.85 7243.8,4739.54L7272.65,4598.47L7298.51,4666.64C7302.44,4677.09 7306.18,4687.92 7310.14,4699.4C7311.71,4703.9 7313.24,4708.4 7314.81,4712.89L7340.23,4785.59C7344.42,4797.6 7348.3,4810.04 7352.42,4823.21C7354.56,4830.02 7356.68,4836.82 7358.86,4843.6C7361,4850.28 7363.22,4856.95 7365.42,4863.63C7369.68,4876.56 7373.72,4888.78 7377.28,4900.83L7399.08,4974.85C7400.57,4979.89 7402.09,4984.94 7403.61,4989.99C7407.06,5001.5 7410.33,5012.38 7413.2,5023.08L7437.92,5114.99Z" style="fill:white;"/>
                <path d="M7000.05,5067.86C6986.74,5062.18 6971.75,5055.59 6957.11,5048.65C6938.96,5040.04 6919.58,5030.68 6900.67,5020.61C6882.75,5011.07 6863.74,5000.84 6845.42,4989.99C6827.75,4979.49 6809.05,4968.31 6791.55,4956.83C6772.67,4944.44 6755.71,4933.22 6739.45,4921.44C6731.25,4915.49 6722.49,4909.13 6713.68,4902.57L6810.41,4808.99C6815.58,4803.97 6821.19,4798.69 6828.53,4791.87L6957.92,4671.76C6960.87,4669.03 6963.8,4666.28 6966.73,4663.53C6972.53,4658.07 6978.01,4652.92 6983.36,4648.18L7122.9,4524.45L7085.54,4707.18C7084.1,4714.17 7082.38,4721.48 7080.57,4729.23C7079.63,4733.14 7078.73,4737.06 7077.82,4740.97L7038.49,4913.07C7036.29,4922.68 7034.45,4930.39 7032.71,4937.33L7000.05,5067.86Z" style="fill:white;"/>
                <path d="M6506.32,4707.79C6491.78,4690.45 6478.61,4673.96 6466.09,4657.36C6454.63,4642.17 6442.82,4625.49 6428.93,4604.88C6419.47,4590.88 6410.25,4575.74 6401.77,4561.56L6419.82,4556.28C6430.83,4553.06 6442.08,4550.07 6454,4546.91L6545.95,4522.34C6556.63,4519.49 6567.66,4516.88 6579.35,4514.12C6584.5,4512.91 6589.65,4511.69 6594.77,4510.45L6669.74,4492.34C6681.98,4489.39 6694.57,4486.78 6707.9,4484C6714.79,4482.58 6721.66,4481.15 6728.52,4479.67C6735.49,4478.16 6742.48,4476.6 6749.45,4475.03C6762.9,4472.02 6775.6,4469.17 6788.04,4466.81L6863.74,4452.47C6868.39,4451.59 6873.06,4450.69 6877.7,4449.78C6889.64,4447.47 6900.92,4445.28 6911.98,4443.48L6983.92,4431.77L6876.19,4527.3C6869.07,4533.6 6862.48,4539.81 6856.07,4545.82C6853.39,4548.34 6850.72,4550.86 6848.02,4553.36L6718.63,4673.47C6710.53,4680.97 6704.02,4687.15 6698.06,4692.89L6590.12,4797.34C6577.05,4784.56 6562.41,4770.07 6548.93,4755.59C6531.19,4736.5 6518.03,4721.76 6506.32,4707.79Z" style="fill:white;"/>
                <path d="M8677.47,5359.83C8689.84,5375.1 8701.53,5389.54 8712.93,5404.3C8710.94,5414 8708.81,5423.66 8706.7,5433.21C8704.51,5443.12 8708.94,5459.1 8699.17,5463.34C8447.85,5572.3 8387.31,5673.65 8387.31,5673.65L8371.8,5641.65C8365.73,5629.11 8359.45,5616.16 8352.58,5603.03L8310.31,5522.31C8302.03,5506.51 8295.08,5493.66 8288.45,5481.9L8243.36,5401.91C8236.45,5389.66 8228.92,5376.82 8220.35,5362.61L8172.95,5284.2C8164.87,5270.85 8156.75,5258.23 8148.45,5245.38L8099.12,5169.13C8091.34,5157.11 8083.43,5145.65 8075.77,5134.57L8055.89,5105.77C8065.84,5095.45 8075.37,5084.85 8084.37,5074.04C8099.83,5055.52 8114.7,5035.3 8129.85,5012.25C8143.05,4992.21 8155.36,4970 8167.52,4944.38C8174.98,4928.66 8181.44,4913.58 8187.03,4898.8C8190.66,4901.49 8194.27,4904.18 8197.87,4906.89C8215.9,4920.5 8234.54,4934.57 8252.55,4948.69C8270.48,4962.76 8288.79,4977.4 8306.95,4992.21C8323.66,5005.84 8339.91,5019.62 8357.12,5034.24L8359.6,5036.33C8371.25,5046.2 8382.67,5056.35 8394.77,5067.08C8399.15,5070.94 8403.53,5074.83 8407.92,5078.71C8421.66,5090.83 8435.62,5103.65 8449.4,5116.8C8453.52,5120.74 8457.66,5124.68 8461.79,5128.59C8473.6,5139.82 8484.77,5150.43 8495.66,5161.28C8512.41,5177.94 8528.76,5194.27 8544.76,5210.88C8562.58,5229.38 8579.97,5248.11 8593.13,5262.35C8604.05,5274.16 8614.68,5286.25 8625.95,5299.02C8629.33,5302.86 8632.7,5306.69 8636.08,5310.53C8647.82,5323.78 8659.78,5337.94 8671.63,5352.61L8677.47,5359.83Z" style="fill:white;"/>
                <path d="M7378.97,3801.3C7390,3806.29 7400.66,3811.3 7410.35,3815.89C7430.31,3825.37 7449.96,3835.67 7466.55,3844.5C7482.46,3852.96 7499.4,3862.57 7521.47,3875.65C7537.65,3885.23 7554.61,3895.89 7574.82,3909.18C7589.43,3918.78 7604.63,3929.27 7621.08,3941.11C7606.7,3950.06 7591.97,3959.45 7576.36,3969.63C7558.99,3980.95 7540.4,3993.16 7522.16,4005.68C7517.78,4008.69 7513.39,4011.69 7508.99,4014.69C7495.65,4023.79 7481.86,4033.2 7468.12,4043.09C7461.78,4047.66 7455.4,4052.19 7449.02,4056.72C7435.67,4066.2 7421.87,4076 7408.15,4086.28L7351.26,4128.93L7359.74,4058.32C7361.78,4041.29 7363.37,4024.43 7364.91,4008.14C7365.65,4000.35 7366.38,3992.57 7367.13,3984.79C7368.82,3968 7370.09,3951.39 7371.3,3935.33C7371.7,3929.99 7372.11,3924.64 7372.54,3919.31C7374.15,3898.51 7375.36,3878.29 7376.65,3854.32C7377.66,3835.68 7378.42,3818.21 7378.97,3801.3Z" style="fill:white;"/>
                <path d="M4064.87,4109.16C4084.68,4088.94 4104.8,4068.94 4125.02,4049.44C4155.81,4019.76 4187.69,3990.36 4219.72,3962.07C4245.95,3938.89 4272.88,3915.98 4300.02,3893.69C4301.56,3892.62 4303.1,3891.52 4304.58,3890.33C4320.56,3877.62 4333.99,3867.02 4347.72,3856.62C4363.09,3845 4379.32,3833.35 4397.42,3821C4405.42,3815.55 4413.1,3810.41 4420.54,3805.53C4414.79,3814.05 4408.68,3823.21 4401.99,3833.43C4389.6,3852.31 4378.41,3871.24 4367.56,3889.56L4365.95,3892.29C4354.51,3911.64 4343.51,3931.76 4333.26,3952.09C4322.58,3973.34 4312.16,3994.21 4302.41,4015.96C4291.64,4040 4282.3,4062.14 4273.81,4083.63C4266.01,4103.44 4258.11,4125.2 4248.93,4152.1C4241.45,4173.95 4235.12,4195.61 4228.98,4216.55L4228.33,4218.77C4221.87,4240.88 4216.14,4263.22 4211.32,4285.19L4209.93,4291.44C4206.49,4307 4202.99,4322.99 4199.86,4339.39L4189.23,4344.62C4169.06,4354.51 4150.76,4363.95 4133.24,4373.47C4128.35,4376.14 4123.48,4378.78 4118.58,4381.43C4104.37,4389.09 4089.7,4397.01 4075.04,4405.4C4055.75,4416.45 4033.31,4429.34 4011.2,4442.64C3988.99,4456 3967.18,4469.74 3948.48,4481.57C3934.67,4490.31 3921.27,4499.27 3908.32,4507.93C3903.8,4510.94 3899.31,4513.96 3894.79,4516.95C3878.73,4527.61 3861.67,4539.6 3841.1,4554.67C3823.28,4567.72 3802.2,4583.26 3781.08,4599.53C3765.43,4611.59 3750.08,4623.9 3735.11,4635.99C3740.36,4621.24 3745.81,4606.37 3751.49,4592.07C3759.92,4570.95 3768.76,4549.93 3777.79,4529.58C3786.33,4510.37 3795.77,4491.06 3804.9,4472.38C3812.58,4456.7 3821.44,4439.95 3832.01,4421.18C3844.28,4399.37 3855.36,4380.48 3865.84,4363.45C3877.62,4344.3 3889.97,4325.64 3901.58,4308.32C3912.43,4292.12 3923.56,4276.5 3934.62,4261.89C3947.42,4245 3961.07,4227.09 3974.91,4210.22C3988.11,4194.14 4002.47,4177.33 4018.83,4158.82C4030.94,4145.1 4043.74,4131.69 4057.32,4117.5L4060.42,4114.24C4061.99,4112.6 4063.45,4110.89 4064.87,4109.16Z" style="fill:white;"/>
                <path d="M5811.65,5468.42C5802.21,5459.23 5792.9,5449.54 5783,5439.29C5778.16,5434.27 5773.31,5429.24 5768.44,5424.24C5764.3,5420 5759.96,5415.26 5755.36,5410.24C5752.79,5407.41 5750.19,5404.56 5747.59,5401.76C5745.29,5399.31 5742.99,5396.86 5740.7,5394.41C5736.46,5389.92 5732.44,5385.65 5728.89,5381.64C5724.44,5376.61 5719.98,5371.62 5715.51,5366.62C5705.59,5355.56 5696.25,5345.11 5687.39,5334.56C5683.9,5330.4 5680.42,5326.26 5676.94,5322.14C5665.91,5309.04 5655.48,5296.7 5645.49,5284.13L5644,5282.29C5629.91,5264.59 5616.59,5247.88 5603.64,5230.72C5589.1,5211.46 5575.74,5193.28 5562.8,5175.14C5550.12,5157.39 5537.78,5139.17 5524.13,5118.87C5515.22,5105.65 5506.63,5092.04 5497.57,5077.6C5494.72,5073.11 5491.89,5068.59 5489.04,5064.1C5486.32,5059.83 5483.49,5055.01 5480.48,5049.89C5479.12,5047.57 5477.76,5045.27 5476.37,5042.95C5474.35,5039.54 5472.31,5036.16 5470.24,5032.8C5466.65,5026.89 5463.27,5021.34 5460.39,5016.17C5457.36,5010.74 5454.28,5005.29 5451.23,4999.86C5444.01,4987.06 5437.19,4975 5430.98,4963.01L5428.18,4957.6C5425.58,4952.59 5423.03,4947.65 5420.51,4942.76L5426.06,4939.99C5430.56,4937.75 5435.05,4935.49 5439.52,4933.23C5449.89,4928 5459.71,4923.06 5469.43,4918.48L5546.54,4882.17C5550.65,4880.24 5554.74,4878.29 5558.83,4876.35C5569.23,4871.4 5579.08,4866.73 5588.82,4862.39L5668.33,4827.05C5671.91,4825.46 5675.5,4823.86 5679.06,4822.25C5689.66,4817.52 5699.66,4813.04 5709.57,4808.88L5799.76,4771.11C5810.77,4766.48 5821.14,4762.11 5831.52,4758.04L5919.76,4723.33C5931.9,4718.55 5943.39,4714.03 5954.87,4709.81L6040.11,4678.42C6052.71,4673.79 6066.09,4668.89 6079.39,4664.33L6166.17,4634.56C6179.85,4629.86 6192.72,4625.6 6205.52,4621.54L6243,4609.64C6247.5,4617.82 6252.14,4626.02 6256.99,4634.19C6268.12,4652.89 6280.74,4674.07 6294.98,4695.2C6310.53,4718.24 6323.9,4737.13 6337.13,4754.65C6351.34,4773.5 6366.21,4792.12 6382.54,4811.61C6396.12,4827.78 6410.96,4844.44 6430.68,4865.63C6445.72,4881.82 6461.24,4897.23 6475.12,4910.85L6373,5013.52C6367.8,5018.69 6362.45,5024.04 6356.99,5029.72L6192.4,5201.16C6187.78,5205.98 6183.11,5210.85 6178.31,5216.1L5884.5,5537.96C5879.63,5533.44 5874.73,5528.87 5869.68,5524.2C5865.72,5520.49 5861.78,5516.81 5857.82,5513.15C5847.19,5503.28 5836.74,5493.03 5825.69,5482.17C5821.02,5477.58 5816.35,5472.99 5811.65,5468.42Z" style="fill:white;"/>
                <path d="M6842.21,5639.45C6842.21,5639.45 6809.62,5721.42 6759.82,5803.84C6754.03,5813.42 6748.72,5803.9 6743.82,5803.84C6733.3,5803.71 6639.78,5803.44 6632.12,5803.84C6588.99,5806.12 6635.25,5797.56 6224.93,5800.8L6222.15,5798.98C6203.9,5786.99 6186.64,5775.66 6169.53,5763.84C6151.98,5751.75 6133.23,5738.73 6114.78,5725.35C6095.44,5711.34 6077.8,5698.24 6060.84,5685.32C6044.76,5673.1 6027.97,5659.95 6007.98,5643.95C6007.68,5643.72 6007.4,5643.47 6007.1,5643.24L6297.6,5325.02C6301.06,5321.26 6304.82,5317.32 6308.83,5313.16L6473.53,5141.59C6477.83,5137.12 6482.37,5132.61 6487.19,5127.78L6554.74,5059.88L6597.34,5017.05C6613.7,5029.77 6629.98,5041.58 6644.6,5052.21C6663.65,5066.02 6683.06,5078.87 6702.93,5091.89C6723.25,5105.22 6743.74,5117.48 6762.98,5128.92C6784.26,5141.54 6806.02,5153.23 6824.72,5163.2C6846.53,5174.81 6867.93,5185.13 6887.82,5194.6C6911.2,5205.68 6934.6,5215.65 6952.37,5223.07C6954.56,5224 6956.81,5224.94 6959.06,5225.85L6918.24,5376.66C6916.47,5383.23 6914.83,5389.44 6913.09,5395.39L6846.93,5623.65C6845.27,5629.36 6843.75,5634.58 6842.21,5639.45Z" style="fill:white;"/>
                <path d="M4211.22,7686.06C4200.24,7675.86 4189.41,7665.16 4177.97,7653.83C4172.02,7647.94 4166.06,7642.04 4160.08,7636.21C4147.13,7623.59 4134.41,7610.66 4122.57,7598.55C4117.8,7593.68 4112.98,7588.8 4108.18,7583.96C4097.96,7573.63 4088.32,7563.92 4079.15,7554.05L4022.51,7493.09C4013.4,7483.29 4004.46,7473.1 3995,7462.27C3991.11,7457.83 3987.2,7453.36 3983.28,7448.91L3981.22,7446.59C3969.48,7433.29 3958.37,7420.75 3947.59,7407.9C3942.12,7401.39 3936.59,7394.9 3931.03,7388.41C3920.38,7375.94 3896.13,7347.85 3886.64,7335.97L4496.69,7340.15C4489.92,7350.81 4476.68,7383.09 4470.77,7393.18C4468.1,7397.75 4465.42,7402.32 4462.7,7406.89L4413.05,7489.93C4410.47,7494.22 4407.85,7498.52 4405.22,7502.81C4399.26,7512.52 4393.13,7522.6 4387.1,7533.45L4311.47,7669.6C4303.62,7683.74 4296.51,7696.96 4289.69,7710.07C4286.61,7716.02 4283.48,7721.95 4280.38,7727.91C4277.78,7732.83 4275.15,7737.83 4272.53,7742.88C4270.94,7741.41 4269.35,7739.98 4267.78,7738.51L4211.22,7686.06Z" style="fill:white;"/>
                <path d="M6894.11,8770.94L6815.36,8772.18C6801.72,8772.38 6787.79,8772.12 6773.03,8771.87C6767.02,8771.75 6761.03,8771.65 6755.03,8771.57C6733.47,8771.27 6715.98,8770.84 6699.95,8770.16C6692.68,8769.88 6685.41,8769.63 6678.12,8769.37C6663.32,8768.87 6649.32,8768.41 6635.71,8767.45L6554.21,8761.8C6540.78,8760.87 6527.1,8759.45 6512.63,8757.96C6506.07,8757.28 6499.53,8756.63 6492.97,8756C6472.32,8754 6455.23,8752.13 6439.18,8750.17C6431.68,8749.23 6424.19,8748.37 6416.69,8747.49C6401.75,8745.77 6387.66,8744.16 6373.93,8742.09L6293.24,8729.97C6279.88,8727.98 6266.4,8725.53 6252.14,8722.95C6246.69,8721.97 6241.26,8720.99 6235.81,8720.03L6229.73,8718.97C6213.17,8716.04 6197.49,8713.26 6181.94,8710.13L6106.83,8694.91C6092.03,8691.91 6077.12,8688.35 6061.29,8684.59C6053.04,8682.62 6044.78,8680.65 6036.55,8678.76C6019.87,8674.94 6003.19,8670.7 5984.71,8665.98C5978.37,8664.37 5972.01,8662.78 5965.65,8661.19C5951.74,8657.73 5938.62,8654.45 5925.82,8650.84L5845.12,8628.07C5832.4,8624.49 5819.58,8620.45 5806.02,8616.21C5800.37,8614.42 5794.72,8612.65 5789.06,8610.91L5781.34,8608.53C5774.35,8606.36 5767.53,8604.27 5760.82,8602.17C5763.82,8597.45 5766.8,8592.73 5769.73,8588.11C5773.28,8582.49 5776.84,8576.83 5780.43,8571.23C5788.53,8558.51 5796.46,8545.71 5804.64,8532.08L5884.88,8398.27C5891.21,8387.72 5896.79,8377.45 5902.19,8367.53C5904.57,8363.14 5906.96,8358.75 5909.39,8354.4L5956.51,8269.84C5959.09,8265.2 5961.74,8260.56 5964.39,8255.91C5970.22,8245.66 5976.25,8235.04 5982.16,8223.78L6046.85,8099.74C6059.88,8104.13 6073.23,8108.58 6086.86,8112.79L6164.12,8136.7C6180.13,8141.62 6195.9,8145.96 6211.2,8150.12C6218.27,8152.07 6225.34,8154.01 6232.38,8155.98C6250.22,8161.03 6268.67,8165.98 6287.25,8170.72C6294.12,8172.46 6301.01,8174.28 6307.9,8176.1C6323.07,8180.09 6338.72,8184.23 6354.85,8187.91L6434.49,8206.18C6450.09,8209.77 6465.48,8212.85 6480.38,8215.83C6484.92,8216.71 6489.46,8217.62 6494.01,8218.55L6505.04,8220.8C6520.48,8223.95 6536.44,8227.21 6552.74,8230.09L6630.51,8243.82C6647.6,8246.82 6664.39,8249.22 6680.64,8251.52C6688.29,8252.6 6695.91,8253.69 6703.53,8254.83C6723,8257.75 6742.13,8260.15 6761.64,8262.58C6767.32,8263.28 6773,8263.99 6778.68,8264.72C6793.67,8266.66 6809.2,8268.66 6825.12,8270.2L6906.15,8278.02C6922.86,8279.64 6939.19,8280.62 6955.02,8281.61C6962.13,8282.04 6969.28,8282.49 6976.4,8282.97C6997.6,8284.43 7018.3,8285.37 7035.74,8286.1C7041.32,8286.33 7046.9,8286.6 7052.47,8286.86C7067.85,8287.56 7083.75,8288.3 7100.05,8288.52L7179.29,8289.56C7180.68,8289.58 7182.06,8289.58 7183.4,8289.58C7188.68,8289.58 7193.67,8289.48 7198.17,8289.36C7200.46,8289.31 7202.79,8289.26 7205.08,8289.2L7252.71,8288.45C7271.17,8288.17 7289.29,8287.34 7306.81,8286.53L7314.18,8286.2C7304.96,8307 7295.52,8327.67 7287.35,8345.42C7279.42,8362.61 7271.39,8379.19 7263.49,8394.69C7252.74,8415.79 7242.16,8436.46 7231.16,8457.01C7221.29,8475.44 7211.12,8493.48 7200.36,8512.59L7198.8,8515.34C7189.71,8531.5 7179.97,8547.42 7168.18,8566.38C7154.95,8587.61 7141.4,8608.43 7129.91,8625.98C7119.39,8642.06 7107.83,8658.18 7096.9,8673.23C7083.09,8692.18 7069.03,8710.66 7055.88,8727.83C7046.82,8739.61 7037.08,8751.3 7026.83,8763.34C7024.91,8763.49 7023.02,8763.62 7021.15,8763.77L7010.27,8764.63C6993.99,8765.89 6978.64,8767.08 6963.45,8767.76L6916.07,8769.93C6913.19,8770.06 6910.26,8770.21 6907.34,8770.38C6902.54,8770.64 6898,8770.89 6894.11,8770.94Z" style="fill:white;"/>
                <path d="M6289.57,4182.69L6330.24,4187.22C6340.61,4188.37 6351.32,4189.92 6362.62,4191.56C6366.44,4192.12 6370.25,4192.67 6374.06,4193.21L6460.41,4205.43C6470.61,4206.87 6481.16,4208.74 6492.31,4210.72C6496.73,4211.5 6501.12,4212.28 6505.54,4213.05L6589.82,4227.56C6600.02,4229.32 6610.55,4231.52 6621.7,4233.86C6626.62,4234.89 6631.52,4235.92 6636.44,4236.91L6718.25,4253.52C6728.6,4255.61 6739.28,4258.2 6750.59,4260.93C6755.94,4262.22 6761.29,4263.52 6766.64,4264.77L6845.52,4283.25C6851.55,4284.65 6857.69,4286.24 6863.99,4287.93C6858.24,4289.01 6852.54,4290.11 6846.96,4291.19C6842.54,4292.05 6838.1,4292.91 6833.65,4293.75L6757.98,4308.09C6742.86,4310.95 6728.25,4314.23 6714.11,4317.4C6707.55,4318.87 6701.01,4320.34 6694.45,4321.76C6687.99,4323.15 6681.52,4324.49 6675.06,4325.84C6661.05,4328.74 6646.57,4331.75 6631.82,4335.31L6556.83,4353.43C6551.99,4354.6 6547.11,4355.75 6542.24,4356.9C6529.95,4359.8 6517.23,4362.81 6504.25,4366.27L6412.53,4390.78C6400.18,4394.05 6387.41,4397.44 6374.46,4401.23L6331.5,4413.8C6328.07,4404.27 6324.69,4394.52 6321.38,4384.41C6315.65,4366.99 6310.65,4348.9 6306.51,4330.63C6301.16,4307.04 6297.78,4289.07 6295.53,4272.36C6292.4,4249.08 6290.66,4230.53 6290.05,4213.98C6289.65,4202.94 6289.47,4192.56 6289.57,4182.69Z" style="fill:white;"/>
                <path d="M5549.11,8527.56C5541.74,8524.68 5534.35,8521.85 5526.95,8519.03C5512.52,8513.53 5498.89,8508.3 5485.63,8502.77L5411.88,8471.88C5397.31,8465.79 5382.9,8459.36 5367.65,8452.54L5363.19,8450.55C5357.18,8447.87 5351.17,8445.22 5345.16,8442.57C5332.14,8436.87 5319.87,8431.47 5307.93,8425.79L5231.75,8389.61C5219.76,8383.91 5207.8,8377.85 5195.13,8371.42C5190.56,8369.12 5185.99,8366.8 5181.42,8364.5C5177.01,8362.28 5172.56,8360.06 5168.15,8357.84C5155.4,8351.48 5143.36,8345.47 5131.6,8339.18L5057.13,8299.55C5045.45,8293.32 5033.76,8286.68 5021.39,8279.61C5015.59,8276.33 5009.81,8273.02 5004,8269.77L4999.28,8267.09C4984.97,8259.07 4971.46,8251.47 4958.16,8243.57L4888.75,8202.42C4876.53,8195.18 4864.36,8187.48 4851.49,8179.33C4844.95,8175.16 4838.42,8171.02 4831.85,8166.94C4815.52,8156.76 4801.26,8147.65 4788.24,8139.09C4781.27,8134.53 4774.28,8130.01 4767.26,8125.49C4753.65,8116.68 4740.81,8108.4 4728.37,8099.82L4665.26,8056.28C4651.91,8047.06 4638.63,8037.55 4622.8,8026.06C4616.95,8021.85 4611.07,8017.63 4605.19,8013.42C4593.25,8004.89 4581.96,7996.83 4571.13,7988.58L4505.2,7938.37C4494.17,7929.97 4483.29,7921.23 4471.76,7912L4462.14,7904.27C4457.85,7900.84 4453.53,7897.41 4449.19,7893.97C4438.09,7885.16 4427.59,7876.83 4417.46,7868.33L4398.28,7852.2L4403.25,7842.13C4409.54,7829.33 4416.25,7816.58 4423.35,7803.1C4426.6,7796.92 4429.86,7790.71 4433.09,7784.5C4439.17,7772.76 4445.61,7760.82 4452.7,7748.05L4528.32,7611.87C4532.69,7604 4537.71,7595.8 4543.02,7587.11C4545.94,7582.37 4548.85,7577.62 4551.7,7572.85L4601.35,7489.76C4604.33,7484.81 4607.26,7479.81 4610.18,7474.81C4615.58,7465.55 4620.71,7456.82 4625.91,7448.66L4688.53,7350.15C4695.42,7355.85 4702.62,7361.71 4709.89,7367.51C4716.2,7372.56 4722.48,7377.68 4728.77,7382.78C4741.97,7393.51 4755.6,7404.59 4769.84,7415.44L4830.04,7461.28C4845.51,7473.05 4860.81,7484.23 4875.07,7494.55C4880.67,7498.62 4886.25,7502.73 4891.83,7506.85C4904.12,7515.88 4916.84,7525.25 4930.12,7534.38L4998.09,7581.28C5011.32,7590.39 5024.57,7599.08 5037.4,7607.46L5046.31,7613.29C5051.13,7616.44 5055.92,7619.62 5060.72,7622.8C5072.83,7630.86 5085.35,7639.16 5098.38,7647.26L5170.42,7692.24C5183.42,7700.35 5196.37,7707.97 5208.91,7715.31C5213.68,7718.14 5218.48,7720.94 5223.25,7723.77L5233.4,7729.8C5246.29,7737.5 5259.65,7745.45 5273.43,7753.18L5346.07,7794.02C5359.9,7801.82 5373.69,7809.04 5386.99,7816C5392.97,7819.13 5398.93,7822.26 5404.86,7825.42C5422.38,7834.73 5438.2,7843.11 5454.64,7851.39L5524.56,7886.58C5539.9,7894.3 5555.2,7901.42 5569.99,7908.31C5576.98,7911.59 5584,7914.85 5590.97,7918.15C5607.25,7925.88 5623.73,7933.48 5641.37,7941.35C5648.21,7944.41 5655.03,7947.51 5661.87,7950.61C5676.41,7957.23 5691.43,7964.07 5706.98,7970.58L5780.73,8001.45C5796.96,8008.24 5813.14,8014.55 5828.79,8020.69L5833.81,8022.63C5839.52,8024.88 5845.22,8027.15 5850.93,8029.42C5864.46,8034.8 5878.47,8040.35 5892.9,8045.6L5838.94,8149.04C5834.42,8157.67 5829.35,8166.58 5823.99,8175.97C5821.12,8181.05 5818.24,8186.12 5815.39,8191.19L5768.29,8275.75C5765.59,8280.57 5762.94,8285.44 5760.29,8290.34C5755.47,8299.17 5750.92,8307.53 5746.33,8315.18L5666.08,8449.01C5658.69,8461.33 5651.57,8472.86 5644.28,8484.3C5640.54,8490.13 5636.83,8496.01 5633.12,8501.86C5624.99,8514.74 5617.32,8526.9 5609.39,8538.77L5603.26,8547.93C5601.47,8547.27 5599.67,8546.59 5597.88,8545.94C5581.58,8540.03 5565.17,8533.84 5549.11,8527.56Z" style="fill:white;"/>
                <path d="M4379.98,8515.17C4346.01,8489.14 4312.13,8462.01 4279.32,8434.55C4270.61,8427.25 4261.9,8419.88 4253.24,8412.43C4251.75,8410.89 4250.19,8409.35 4248.57,8407.92C4245.97,8405.59 4243.88,8403.09 4241.98,8400.01C4239.18,8395.47 4235.37,8386.59 4233.1,8370.03C4231.23,8356.47 4231.01,8341.23 4232.37,8319.04C4233.4,8302.05 4236.66,8283.58 4240.12,8263.99L4240.34,8262.73C4243.63,8244.15 4248.88,8224.69 4254.43,8204.09L4254.53,8203.76C4259.81,8184.2 4265.48,8165.55 4271.39,8148.33L4274.62,8138.97C4280.2,8122.59 4285.5,8107.09 4291.33,8092.32C4293.91,8085.78 4296.46,8079.2 4298.98,8072.63C4304.36,8058.7 4309.43,8045.55 4314.83,8032.95C4317.78,8026.11 4320.69,8019.22 4323.59,8012.33C4324.88,8009.33 4326.11,8006.35 4327.38,8003.4C4334.6,8009.25 4341.79,8014.96 4348.81,8020.53C4352.97,8023.84 4357.11,8027.12 4361.25,8030.43L4370.62,8037.95C4382.43,8047.44 4394.65,8057.24 4407.34,8066.9L4473.27,8117.11C4486.05,8126.85 4498.87,8135.99 4511.26,8144.85C4516.84,8148.84 4522.44,8152.82 4528,8156.86C4544.73,8169.01 4558.89,8179.15 4573.53,8189.27L4636.66,8232.79C4651.1,8242.76 4665.59,8252.12 4679.6,8261.16C4686.26,8265.48 4692.92,8269.77 4699.56,8274.14C4713.65,8283.37 4728.97,8293.14 4746.39,8304.02C4752.62,8307.91 4758.83,8311.85 4765.04,8315.78C4778.34,8324.22 4792.07,8332.92 4806.36,8341.38L4875.75,8382.52C4890.69,8391.38 4905.66,8399.79 4920.15,8407.94L4924.84,8410.57C4930.37,8413.7 4935.87,8416.83 4941.4,8419.98C4954.22,8427.28 4967.48,8434.82 4981.23,8442.14L5055.67,8481.8C5069.28,8489.04 5082.83,8495.81 5095.93,8502.34C5100.22,8504.49 5104.51,8506.64 5108.78,8508.78C5113.22,8511.03 5117.61,8513.25 5122.03,8515.5C5135.08,8522.11 5148.56,8528.95 5162.44,8535.54L5238.65,8571.73C5252.7,8578.4 5266.66,8584.53 5280.14,8590.46C5285.87,8592.99 5291.6,8595.51 5297.33,8598.06L5301.75,8600.03C5317.2,8606.92 5333.17,8614.06 5349.48,8620.9L5423.26,8651.77C5438.86,8658.31 5454.36,8664.22 5469.33,8669.95C5476.34,8672.62 5483.34,8675.3 5490.33,8678.02C5496.13,8680.3 5502.02,8682.54 5507.9,8684.76C5505.93,8687.39 5503.91,8690.04 5501.89,8692.72C5497.35,8698.72 5492.8,8704.7 5488.33,8710.71C5480.16,8721.67 5471.35,8732.6 5462.01,8744.18C5457.54,8749.71 5453.07,8755.24 5448.68,8760.79C5439.04,8772.91 5428.51,8784.95 5417.38,8797.69L5410.19,8805.95C5398.25,8819.68 5385.22,8833.61 5370.36,8848.53C5356.02,8862.94 5341.2,8877.81 5326.66,8890.03L5326.06,8890.53C5310.63,8903.48 5296.1,8915.7 5281.71,8925.19C5267.55,8934.55 5252.48,8943.97 5238.37,8949.5C5224.74,8954.85 5214.29,8957.4 5207.27,8957.17C5203.38,8957.04 5200.18,8956.56 5198.01,8955.81C5193.99,8954.39 5189.93,8953.33 5185.84,8952.58C5182.38,8951.36 5178.9,8950.15 5175.47,8948.94C5134.5,8934.25 5093.31,8918.43 5053.07,8901.92C5012.96,8885.48 4972.68,8867.92 4933.35,8849.69C4894.18,8831.54 4854.85,8812.26 4816.48,8792.39C4778.22,8772.58 4739.9,8751.63 4702.57,8730.15C4665.34,8708.72 4628.06,8686.15 4591.73,8663.11C4555.51,8640.09 4519.34,8615.96 4484.18,8591.4C4449.09,8566.89 4414.03,8541.24 4379.98,8515.17Z" style="fill:white;"/>
                <path d="M8044.69,4799.39C8046.01,4800.23 8047.32,4801.1 8048.63,4801.96C8046.65,4809.11 8044.47,4816.46 8042.06,4824.06C8036.96,4840.12 8030.26,4856.82 8021.57,4875.12C8012.65,4893.92 8003.92,4909.75 7994.88,4923.51C7983.12,4941.39 7971.81,4956.78 7960.31,4970.58C7960.09,4970.83 7959.86,4971.08 7959.65,4971.34L7941.4,4946.55C7933.62,4935.96 7925.77,4926.01 7918.18,4916.39C7915.91,4913.51 7913.64,4910.63 7911.38,4907.74L7857.61,4839.08C7849.52,4828.76 7841.4,4819.1 7833.55,4809.75C7830.83,4806.52 7828.11,4803.28 7825.41,4800.03L7770.69,4734.31C7762.22,4724.14 7753.73,4714.65 7745.51,4705.47C7742.39,4701.97 7739.26,4698.48 7736.16,4694.97L7680.88,4632.44C7671.93,4622.31 7662.95,4612.88 7654.28,4603.77C7650.74,4600.05 7647.21,4596.34 7643.71,4592.61L7608.91,4555.52L7654.24,4577.25C7666.39,4583.07 7677.86,4588.57 7688.9,4594.31L7769.47,4636.24C7781.22,4642.36 7793.27,4648.9 7806.3,4656.24L7884.66,4700.41C7894.46,4705.93 7904.38,4712.01 7914.88,4718.45L7993.97,4766.67C8004.92,4773.35 8015.9,4780.55 8027.53,4788.19C8033.24,4791.93 8038.96,4795.68 8044.69,4799.39Z" style="fill:white;"/>
                <path d="M3555.32,7535.11C3535.37,7496.85 3516.01,7457.7 3497.79,7418.68C3496.7,7414.66 3495.29,7410.67 3493.55,7406.76L3489.16,7396.97C3481.38,7379.58 3481.35,7375.61 3475.06,7357.19C3745.15,7364.89 3686.24,7340.1 3695.58,7352.39C3698.41,7356.1 3687.86,7342.14 3690.66,7345.85L3695.58,7352.39C3705.63,7365.72 3716.03,7379.53 3726.96,7393.23L3774.49,7452.9C3785.69,7466.99 3797.15,7480.37 3808.21,7493.34C3813.46,7499.47 3818.68,7505.61 3823.86,7511.77C3835.97,7526.18 3848.27,7540.11 3860.18,7553.57L3862.23,7555.89C3865.99,7560.13 3869.72,7564.4 3873.46,7568.66C3883.28,7579.89 3893.43,7591.51 3904.15,7603.04L3960.82,7664.03C3971.72,7675.76 3982.73,7686.87 3993.38,7697.62C3997.95,7702.24 4002.52,7706.83 4007.04,7711.48C4019.58,7724.3 4033.16,7738.11 4047.35,7751.94C4053.03,7757.47 4058.66,7763.05 4064.31,7768.62C4076.17,7780.36 4088.44,7792.53 4101.36,7804.49L4157.93,7856.97C4171.74,7869.77 4185.67,7882.09 4199.18,7894C4197.53,7897.58 4195.92,7901.19 4194.25,7904.8C4187.24,7919.97 4180.88,7935.02 4174.74,7949.58C4171.99,7956.07 4169.26,7962.58 4166.49,7969.04C4159.82,7984.52 4153.94,7999.79 4148.24,8014.53C4145.86,8020.71 4143.47,8026.9 4141.04,8033.05C4133.85,8051.3 4127.69,8069.3 4121.76,8086.69L4118.63,8095.83C4111.54,8116.45 4104.77,8138.64 4098.56,8161.69L4098.46,8162.04C4092.25,8185.11 4085.82,8208.99 4081.27,8234.61L4081.05,8235.87C4080.21,8240.56 4079.38,8245.31 4078.57,8250.08C4051.89,8223.22 4025.46,8195.63 3999.92,8167.82C3970.94,8136.34 3942.32,8103.78 3914.78,8071.09C3887.22,8038.4 3860.01,8004.63 3833.86,7970.68C3807.68,7936.73 3781.93,7901.75 3757.32,7866.74C3732.64,7831.65 3708.41,7795.53 3685.28,7759.41C3662.11,7723.19 3639.45,7685.98 3617.91,7648.81C3596.31,7611.55 3575.26,7573.28 3555.32,7535.11Z" style="fill:white;"/>
                <path d="M8143.99,4007.57C8158.26,4021.47 8175.14,4038.03 8192.1,4055.38C8207.17,4070.8 8222.51,4086.93 8239.02,4104.68C8254.67,4121.52 8270.37,4139.29 8284.23,4154.97C8295.54,4167.76 8306.52,4180.89 8318.16,4194.79L8327.02,4205.38C8336.26,4216.39 8345.29,4227.83 8354.84,4239.94C8358.8,4244.95 8362.75,4249.96 8366.72,4254.94C8369.92,4258.96 8373.31,4263.51 8376.88,4268.33C8378.77,4270.87 8380.67,4273.41 8382.57,4275.94C8384.88,4278.99 8387.21,4282.04 8389.55,4285.08C8393.67,4290.46 8397.57,4295.53 8400.98,4300.31C8404.81,4305.68 8408.67,4311.02 8412.54,4316.36C8421.04,4328.11 8429.07,4339.2 8436.55,4350.32C8439.19,4354.23 8441.83,4358.13 8444.47,4362.03C8448.66,4368.23 8452.74,4374.26 8456.74,4380.25C8439.19,4372.74 8420.34,4364.98 8396.85,4355.6C8375.33,4347 8354.03,4339.79 8333.43,4332.83L8329.72,4331.57C8306.55,4323.73 8286.92,4317.32 8266.39,4311.53C8237.6,4303.39 8215.23,4297.32 8193.85,4291.84C8176.77,4287.46 8154.2,4281.83 8131.03,4277.02C8129.51,4276.71 8127.96,4276.39 8126.43,4276.07C8118.42,4260.46 8110.01,4245.17 8101.4,4229.69C8090.17,4209.5 8077.88,4189.47 8064.88,4170.17L8061.25,4164.77C8049.93,4147.94 8038.23,4130.54 8025.15,4113.2C8012.04,4095.83 7997.17,4076.13 7980.98,4056.84C7967.38,4040.63 7951.14,4021.55 7933.89,4002.98C7923,3991.26 7913.18,3980.93 7903.94,3971.47C7915.97,3966.17 7928.23,3961.04 7940.26,3956.74C7960.6,3949.48 7978.87,3943.1 7996.6,3938.69C8017.21,3933.56 8033.35,3930.76 8047.4,3929.89C8051.62,3929.63 8055.57,3929.52 8059.3,3929.54C8071.77,3940.49 8083.62,3950.93 8095.14,3961.61L8099.72,3965.85C8115.13,3980.14 8129.7,3993.64 8143.99,4007.57Z" style="fill:white;"/>
                <path d="M7364.13,8121.73C7347.95,8122.96 7331.57,8123.7 7314.23,8124.48L7299.39,8125.16C7282.32,8125.94 7266.17,8126.68 7250.14,8126.93L7202.53,8127.68C7199.76,8127.74 7196.98,8127.78 7194.2,8127.86C7189.56,8127.99 7185.17,8128.09 7181.43,8128.04L7102.17,8126.98C7088.54,8126.8 7074.66,8126.17 7059.97,8125.49C7054.11,8125.21 7048.28,8124.93 7042.43,8124.71C7026.1,8124.02 7006.81,8123.14 6987.58,8121.8C6980.03,8121.3 6972.46,8120.82 6964.89,8120.36C6949.82,8119.43 6935.56,8118.57 6921.67,8117.23L6840.65,8109.38C6827.27,8108.1 6813.66,8106.36 6799.28,8104.51C6793.32,8103.73 6787.36,8102.97 6781.43,8102.24C6763.03,8099.97 6745.06,8097.72 6727.54,8095.07C6719.49,8093.86 6711.41,8092.73 6703.33,8091.56C6687.71,8089.37 6672.97,8087.27 6658.58,8084.72L6580.81,8071.02C6566.65,8068.52 6552.44,8065.62 6537.42,8062.54L6526.11,8060.24C6521.42,8059.28 6516.72,8058.35 6512.05,8057.41C6497.61,8054.51 6483.99,8051.78 6470.61,8048.73L6390.97,8030.45C6377.36,8027.35 6363.61,8023.72 6349.04,8019.88C6341.77,8017.96 6334.48,8016.04 6327.21,8014.2C6309.92,8009.78 6292.78,8005.19 6276.25,8000.52C6268.8,7998.42 6261.3,7996.35 6253.83,7994.31C6239.17,7990.3 6225.31,7986.51 6211.86,7982.34L6134.59,7958.47C6129.87,7957 6125.15,7955.49 6120.41,7953.95L6174.17,7844.5C6178.21,7836.32 6181.92,7828.32 6185.5,7820.6L6262.26,7655.54C6263.8,7652.26 6265.34,7648.95 6266.91,7645.68C6270.54,7637.97 6274.3,7630.02 6277.99,7621.62L6371.36,7410.19C6374.49,7403.08 6377.82,7395.33 6381.83,7385.76L6400.99,7340.15C6400.99,7340.15 6808.06,7333.76 6823.41,7336.79C6829.67,7338.03 6835.9,7339.24 6842.16,7340.53C6862.96,7344.74 6883.15,7348.35 6903.7,7351.99L6908.22,7352.77C6927.02,7356.1 6946.48,7359.56 6966.25,7362.51C6972.76,7363.5 6979.3,7364.51 6985.84,7365.54C7001.46,7367.99 7017.64,7370.52 7034.25,7372.56L7108.94,7381.8C7126.58,7383.97 7143.87,7385.48 7160.63,7386.95C7168.51,7387.65 7176.41,7388.34 7184.28,7389.12C7201.05,7390.73 7217.48,7391.77 7233.38,7392.78C7239.77,7393.18 7246.15,7393.59 7252.51,7394.04C7272.35,7395.4 7291.97,7396.21 7310.92,7396.99L7317.33,7397.27C7340.58,7398.23 7361.61,7398.81 7381.62,7399.09L7392.93,7399.24C7405.19,7399.42 7417.73,7399.59 7430.47,7399.59C7436.15,7399.59 7441.88,7399.57 7447.63,7399.47C7454.11,7399.37 7460.6,7399.32 7467.09,7399.27C7483.19,7399.11 7499.85,7398.96 7516.94,7398.2L7561.55,7396.16C7561.99,7396.14 7562.43,7396.11 7562.87,7396.11L7560.92,7409.24C7559.26,7420.47 7557.22,7431.88 7555.07,7443.97C7554.33,7448.08 7553.6,7452.2 7552.88,7456.31L7539.37,7533.4C7537.17,7545.99 7534.46,7558.82 7531.58,7572.42C7530.1,7579.44 7528.62,7586.48 7527.19,7593.5C7525.93,7599.73 7524.71,7605.97 7523.49,7612.23C7521.03,7624.9 7518.7,7636.87 7516.03,7648.4L7497.11,7730.03C7493.25,7746.66 7489.94,7760.57 7486.34,7774.33L7464.02,7859.52C7461.05,7870.88 7457.58,7882.44 7453.91,7894.7C7452.49,7899.43 7451.07,7904.17 7449.68,7908.92L7436.38,7954.1C7435.76,7956.22 7435.15,7958.36 7434.54,7960.49C7433.57,7963.87 7432.66,7967.07 7431.85,7969.55L7406.92,8045.37C7401.19,8062.81 7396.29,8077 7391.52,8090.05L7380.39,8120.49L7364.13,8121.73Z" style="fill:white;"/>
                <path d="M7344.8,8717.53C7340.4,8718.44 7336.01,8719.37 7331.62,8720.3C7315.92,8723.61 7301.08,8726.74 7286.41,8729.29L7250.87,8735.47C7255.62,8728.61 7260.39,8721.64 7265.06,8714.47C7277.05,8696.17 7291.21,8674.39 7305.29,8651.8C7316.5,8633.83 7328.39,8614.44 7339.55,8594.63L7341.11,8591.88C7351.81,8572.87 7362.87,8553.26 7373.55,8533.34C7385.28,8511.41 7396.28,8489.92 7407.45,8467.99C7416.29,8450.62 7425.24,8432.15 7434.06,8413.01C7443.33,8392.9 7454.24,8369.07 7464.78,8345.01C7473.82,8324.37 7482.49,8303.57 7490.87,8283.45L7492.76,8278.93C7493.66,8276.76 7494.61,8274.46 7495.59,8272.12L7527.06,8268.71C7543.92,8266.89 7560.18,8264.47 7575.9,8262.12C7582.61,8261.11 7589.31,8260.1 7596.02,8259.17C7616.74,8256.26 7637.01,8252.73 7656.62,8249.32L7660.78,8248.59C7680.22,8245.21 7700.32,8241.7 7720.66,8237.49C7727.08,8236.12 7733.52,8234.83 7739.97,8233.55C7755.6,8230.42 7771.78,8227.19 7788.32,8223.15L7861.76,8205.28C7869.76,8203.31 7877.25,8201.11 7883.87,8199.19C7886.63,8198.39 7889.4,8197.58 7892.16,8196.8L7935.11,8184.76C7955.83,8178.95 7975.8,8172.46 7992.9,8166.86L7997.65,8165.29C8017.72,8158.73 8038.48,8151.92 8059.32,8144.22C8083.8,8135.21 8106.63,8126.55 8129.09,8117.79C8151.18,8109.18 8172.61,8099.89 8191.52,8091.72C8213.54,8082.17 8233.21,8073.24 8251.65,8064.4L8255.74,8062.46C8274.81,8053.32 8294.53,8043.88 8314.24,8033.46C8335.63,8022.18 8357.47,8010.34 8379.14,7998.32C8388.83,7992.95 8398.31,7987.44 8407.62,7981.89C8406.41,7984.41 8405.22,7986.91 8404.01,7989.44C8395.06,8007.91 8386.95,8023.66 8379.22,8037.52C8368.27,8057.19 8356.47,8078.16 8344.38,8098.38C8339.99,8105.7 8335.46,8113.3 8331.03,8120.21C8328.68,8123.9 8326.36,8127.61 8324.04,8131.34C8320,8137.78 8316.19,8143.89 8312.49,8149.34L8310.09,8152.85C8298.38,8170.01 8287.32,8186.24 8275.78,8202.07C8262.75,8219.94 8248.91,8237.86 8234.69,8256.16C8223.83,8270.15 8212.06,8283.83 8197.73,8300.06C8182.46,8317.37 8166.73,8334.26 8153.02,8348.85C8136.74,8361.85 8119.98,8375.18 8103.19,8387.72C8085.16,8401.18 8066.33,8414.3 8048.12,8427C8032.47,8437.9 8016.13,8448.3 7998.83,8459.31L7995.12,8461.65C7980.43,8470.99 7964.36,8480.71 7942.98,8493.1C7922.92,8504.77 7906.14,8514.11 7890.2,8522.54L7885.04,8525.26C7867.23,8534.65 7850.42,8543.54 7833.49,8551.67C7812.26,8561.84 7790.49,8572.01 7768.8,8581.91C7752.16,8589.5 7735.02,8596.55 7716.87,8603.99L7710.2,8606.74C7692.65,8613.96 7674.07,8621.21 7654.98,8628.22L7651.62,8629.49C7632.22,8636.63 7613.9,8643.39 7595.5,8649.43C7572.07,8657.12 7548.88,8664.52 7526.56,8671.44C7512.36,8675.8 7497.79,8679.79 7482.35,8683.98C7474.95,8686 7467.55,8688.05 7460.16,8690.09C7446.08,8694.05 7431.55,8697.54 7416.16,8701.22C7411.18,8702.43 7406.2,8703.62 7401.23,8704.83C7383.54,8709.15 7365.06,8713.31 7344.8,8717.53Z" style="fill:white;"/>
                <path d="M8731.81,5174.86C8725.26,5167.51 8718.6,5160.09 8711.8,5152.72C8698.1,5137.9 8679.96,5118.37 8661.09,5098.78C8644.02,5081.06 8627.01,5064.07 8609.64,5046.78C8597.4,5034.59 8585.02,5022.83 8573.05,5011.47C8569.02,5007.63 8564.99,5003.82 8560.98,4999.99C8545.66,4985.35 8530.11,4971.08 8514.77,4957.54C8510.49,4953.77 8506.22,4949.98 8501.96,4946.2C8489.74,4935.36 8477.1,4924.16 8464.09,4913.12L8461.61,4911.03C8444.59,4896.58 8426.98,4881.65 8409.08,4867.04C8390.1,4851.56 8370.97,4836.26 8352.23,4821.56C8333.05,4806.53 8313.81,4792 8295.19,4777.95C8280.78,4767.08 8266.25,4756.57 8252.19,4746.4C8247.91,4743.3 8243.62,4740.2 8239.35,4737.1C8234.64,4733.68 8229.93,4730.34 8225.24,4727.02C8225.33,4725.92 8225.44,4724.86 8225.53,4723.75C8227.61,4699.41 8228.19,4674.37 8227.28,4649.33C8226.24,4620.8 8224.41,4597.49 8221.55,4575.96C8217.64,4546.63 8213.73,4524.07 8208.88,4502.8C8205.84,4489.49 8202.34,4475.56 8198.14,4460.19C8205.74,4462.28 8213.79,4464.54 8222.48,4466.99C8239.72,4471.86 8257.12,4477.55 8277.94,4484.6L8281.68,4485.86C8301.1,4492.43 8319.44,4498.63 8336.9,4505.61C8362.49,4515.83 8382.1,4523.94 8400.48,4531.91C8417.63,4539.34 8434.82,4547.41 8451.55,4555.89L8457.68,4558.99C8475.05,4567.77 8491.45,4576.06 8506.59,4584.97L8538.61,4603.84C8543.85,4606.93 8549.57,4610.65 8555.62,4614.59C8559.16,4616.89 8562.69,4619.19 8566.25,4621.45C8578.2,4629.05 8590.87,4637.84 8605.7,4648.83C8611.8,4662.53 8617.59,4675.63 8622.86,4688.68L8638.24,4726.76C8640.27,4731.8 8642.32,4737.55 8644.49,4743.65C8645.72,4747.12 8646.96,4750.6 8648.22,4754.05C8655.62,4774.23 8662.34,4794.66 8669.47,4816.29L8670.21,4818.54C8671.91,4823.71 8673.58,4829.48 8675.34,4835.59L8677.21,4842.03C8678.23,4845.48 8679.27,4848.94 8680.32,4852.39C8682.18,4858.53 8683.94,4864.34 8685.26,4869.49L8686.45,4874.15C8692.11,4896.3 8697.46,4917.22 8702.27,4938.39C8706.3,4956.14 8710.04,4975.07 8713.69,4996.33C8717.66,5019.4 8720.75,5038.66 8722.93,5057.61C8725.66,5081.31 8727.8,5103.38 8729.47,5125.06C8730.6,5139.7 8731.34,5155.4 8731.81,5174.86Z" style="fill:white;"/>
                <path d="M8063.82,4620.06L7999.29,4580.71C7988.01,4573.79 7976.35,4566.64 7963.97,4559.67L7885.62,4515.51C7871.01,4507.27 7857.41,4499.89 7844.05,4492.94L7763.48,4451.01C7750.07,4444.03 7736.83,4437.69 7724.03,4431.56L7640.99,4391.74C7635.11,4388.93 7629.32,4386.28 7623.59,4383.72L7651.59,4384.24C7669.07,4384.56 7688.21,4385.2 7711.82,4386.24C7729.24,4387.01 7746.52,4388.11 7764.81,4389.28L7776.81,4390.03C7793.33,4391.07 7811.43,4392.6 7833.79,4394.84C7860.26,4397.48 7884,4400.08 7906.38,4402.77C7925.47,4405.06 7945.76,4407.57 7965.46,4410.77L7972.76,4411.95C7986.95,4414.25 8000.56,4416.45 8014.04,4418.8C8014.77,4420.57 8015.51,4422.32 8016.22,4424.09C8024.49,4444.6 8030.45,4461.39 8034.99,4476.92C8042.2,4501.58 8047.25,4520.64 8051.38,4538.73C8055.09,4554.99 8058.19,4573.05 8061.41,4597.29C8062.36,4604.39 8063.15,4611.93 8063.82,4620.06Z" style="fill:white;"/>
                <path d="M7364.81,3503.76C7364,3499.42 7363.17,3494.83 7362.29,3490.1C7373.24,3494.83 7384.25,3499.66 7395.22,3504.56C7417.43,3514.47 7439.36,3524.81 7456,3532.72C7476,3542.22 7496.22,3552.39 7515.78,3562.23C7532.33,3570.56 7548.62,3579.25 7565.87,3588.45L7574.41,3593C7589.07,3600.81 7603.54,3608.97 7618.86,3617.62C7623.23,3620.09 7627.61,3622.56 7631.99,3625.02C7645.38,3632.54 7658.64,3640.48 7672.69,3648.87C7677.87,3651.97 7683.06,3655.07 7688.26,3658.16C7700.74,3665.56 7713.13,3673.37 7726.24,3681.63C7731.9,3685.2 7737.55,3688.76 7743.22,3692.3C7754.95,3699.61 7766.63,3707.38 7779,3715.62C7784.85,3719.51 7790.7,3723.4 7796.57,3727.26C7807.73,3734.59 7818.85,3742.37 7830.62,3750.62C7836.53,3754.75 7842.43,3758.88 7848.36,3762.97C7853.13,3766.26 7858.15,3769.96 7863.47,3773.88C7866.45,3776.08 7869.44,3778.28 7872.44,3780.45C7875.48,3782.65 7878.54,3784.84 7881.6,3787.02C7887.05,3790.9 7892.19,3794.57 7896.84,3798.12C7897.63,3798.72 7898.43,3799.31 7899.22,3799.91C7894.78,3801.46 7890.35,3803.03 7885.91,3804.62C7861.93,3813.18 7838.84,3823.5 7819.08,3832.49C7803.49,3839.58 7788.15,3847.09 7773.86,3854.26C7755.69,3839.8 7738.46,3826.66 7721.32,3814.23C7700.73,3799.3 7681.84,3786.2 7663.54,3774.17C7641.18,3759.48 7622.21,3747.56 7603.83,3736.67C7579.54,3722.28 7560.6,3711.55 7542.42,3701.88C7524.22,3692.2 7502.54,3680.84 7479.63,3669.96C7460.77,3661.01 7438.4,3650.56 7415.44,3640.94C7403.94,3636.12 7391.16,3630.84 7377.81,3625.56C7376.85,3609.4 7375.72,3592.64 7374.05,3575.55C7371.85,3552.84 7369.33,3528.59 7364.81,3503.76Z" style="fill:white;"/>
            </g>
        </g>
        <g transform="matrix(1.00962,0,0,1.00962,-8.41329,123.253)">
            <g transform="matrix(280.605,0,0,280.605,149,1000)">
                <path d="M0.384,0.008C0.356,0.008 0.332,0.003 0.312,-0.006C0.292,-0.015 0.275,-0.027 0.261,-0.042C0.248,-0.056 0.238,-0.072 0.231,-0.089L0.224,-0.089L0.224,-0L0.056,-0L0.056,-0.728L0.227,-0.728L0.227,-0.452L0.231,-0.452C0.237,-0.469 0.247,-0.485 0.26,-0.5C0.274,-0.515 0.29,-0.528 0.311,-0.538C0.331,-0.548 0.356,-0.553 0.385,-0.553C0.423,-0.553 0.459,-0.543 0.492,-0.523C0.525,-0.503 0.552,-0.472 0.572,-0.43C0.592,-0.389 0.602,-0.336 0.602,-0.272C0.602,-0.211 0.593,-0.159 0.573,-0.117C0.554,-0.076 0.527,-0.045 0.494,-0.024C0.461,-0.002 0.424,0.008 0.384,0.008ZM0.326,-0.125C0.348,-0.125 0.366,-0.131 0.381,-0.143C0.396,-0.156 0.408,-0.173 0.415,-0.195C0.423,-0.217 0.427,-0.243 0.427,-0.272C0.427,-0.302 0.423,-0.328 0.416,-0.35C0.408,-0.372 0.396,-0.389 0.381,-0.401C0.366,-0.413 0.348,-0.42 0.326,-0.42C0.304,-0.42 0.285,-0.414 0.27,-0.402C0.255,-0.39 0.243,-0.373 0.235,-0.351C0.227,-0.329 0.223,-0.303 0.223,-0.272C0.223,-0.243 0.227,-0.217 0.235,-0.195C0.243,-0.173 0.255,-0.156 0.27,-0.143C0.286,-0.131 0.304,-0.125 0.326,-0.125Z" style="fill:white;fill-rule:nonzero;"/>
            </g>
            <g transform="matrix(280.605,0,0,280.605,316.673,1000)">
                <path d="M0.31,0.01C0.253,0.01 0.204,-0.002 0.163,-0.025C0.122,-0.049 0.09,-0.082 0.068,-0.124C0.046,-0.166 0.035,-0.215 0.035,-0.271C0.035,-0.327 0.046,-0.376 0.068,-0.419C0.09,-0.461 0.122,-0.494 0.163,-0.517C0.204,-0.541 0.253,-0.553 0.31,-0.553C0.367,-0.553 0.416,-0.541 0.457,-0.517C0.497,-0.494 0.529,-0.461 0.551,-0.419C0.573,-0.376 0.584,-0.327 0.584,-0.271C0.584,-0.215 0.573,-0.166 0.551,-0.124C0.529,-0.082 0.497,-0.049 0.457,-0.025C0.416,-0.002 0.367,0.01 0.31,0.01ZM0.31,-0.12C0.331,-0.12 0.35,-0.126 0.365,-0.139C0.38,-0.152 0.391,-0.169 0.399,-0.192C0.406,-0.215 0.41,-0.242 0.41,-0.272C0.41,-0.302 0.406,-0.329 0.399,-0.351C0.391,-0.374 0.38,-0.391 0.365,-0.404C0.35,-0.416 0.331,-0.423 0.31,-0.423C0.288,-0.423 0.269,-0.416 0.254,-0.404C0.239,-0.391 0.228,-0.374 0.22,-0.351C0.213,-0.329 0.209,-0.302 0.209,-0.272C0.209,-0.242 0.213,-0.215 0.22,-0.192C0.228,-0.169 0.239,-0.152 0.254,-0.139C0.269,-0.126 0.288,-0.12 0.31,-0.12Z" style="fill:white;fill-rule:nonzero;"/>
            </g>
            <g transform="matrix(280.605,0,0,280.605,479.117,1000)">
                <path d="M0.246,0.007C0.207,0.007 0.174,-0.002 0.146,-0.019C0.117,-0.036 0.095,-0.06 0.08,-0.09C0.064,-0.121 0.056,-0.157 0.056,-0.198L0.056,-0.546L0.227,-0.546L0.227,-0.231C0.227,-0.201 0.234,-0.177 0.25,-0.159C0.266,-0.142 0.288,-0.133 0.316,-0.133C0.334,-0.133 0.351,-0.137 0.364,-0.145C0.378,-0.153 0.389,-0.165 0.397,-0.18C0.405,-0.195 0.409,-0.213 0.409,-0.234L0.409,-0.546L0.579,-0.546L0.579,-0L0.419,-0L0.416,-0.138L0.423,-0.138C0.41,-0.094 0.389,-0.059 0.36,-0.033C0.331,-0.006 0.293,0.007 0.246,0.007Z" style="fill:white;fill-rule:nonzero;"/>
            </g>
            <g transform="matrix(280.605,0,0,280.605,646.209,1000)">
                <path d="M0.351,-0.546L0.351,-0.419L0.01,-0.419L0.01,-0.546L0.351,-0.546ZM0.082,-0.676L0.252,-0.676L0.252,-0.167C0.252,-0.153 0.256,-0.142 0.263,-0.135C0.27,-0.128 0.281,-0.124 0.296,-0.124C0.302,-0.124 0.31,-0.125 0.321,-0.126C0.331,-0.128 0.339,-0.129 0.343,-0.131L0.365,-0.006C0.346,-0.001 0.328,0.003 0.31,0.005C0.292,0.007 0.275,0.008 0.259,0.008C0.201,0.008 0.157,-0.006 0.127,-0.033C0.097,-0.06 0.082,-0.1 0.082,-0.152L0.082,-0.676Z" style="fill:white;fill-rule:nonzero;"/>
            </g>
            <g transform="matrix(280.605,0,0,280.605,742.196,1000)">
                <path d="M0.056,-0L0.056,-0.546L0.227,-0.546L0.227,-0L0.056,-0ZM0.141,-0.61C0.117,-0.61 0.096,-0.618 0.079,-0.634C0.062,-0.65 0.053,-0.669 0.053,-0.692C0.053,-0.715 0.062,-0.734 0.079,-0.75C0.096,-0.766 0.117,-0.774 0.141,-0.774C0.166,-0.774 0.186,-0.766 0.204,-0.75C0.221,-0.734 0.229,-0.715 0.229,-0.692C0.229,-0.669 0.221,-0.65 0.204,-0.634C0.186,-0.618 0.166,-0.61 0.141,-0.61Z" style="fill:white;fill-rule:nonzero;"/>
            </g>
            <g transform="matrix(280.605,0,0,280.605,810.385,1000)">
                <path d="M0.581,0.204L0.411,0.204L0.411,-0.089L0.407,-0.089C0.4,-0.072 0.39,-0.056 0.376,-0.042C0.363,-0.027 0.346,-0.015 0.326,-0.006C0.306,0.003 0.282,0.008 0.254,0.008C0.214,0.008 0.177,-0.002 0.144,-0.024C0.11,-0.045 0.084,-0.076 0.064,-0.117C0.045,-0.159 0.035,-0.211 0.035,-0.272C0.035,-0.336 0.045,-0.389 0.066,-0.43C0.086,-0.472 0.113,-0.503 0.146,-0.523C0.179,-0.543 0.214,-0.553 0.253,-0.553C0.282,-0.553 0.306,-0.548 0.327,-0.538C0.347,-0.528 0.364,-0.515 0.377,-0.5C0.391,-0.485 0.4,-0.469 0.407,-0.452L0.413,-0.452L0.413,-0.546L0.581,-0.546L0.581,0.204ZM0.312,-0.125C0.334,-0.125 0.352,-0.131 0.367,-0.143C0.383,-0.156 0.395,-0.173 0.403,-0.195C0.411,-0.217 0.415,-0.243 0.415,-0.272C0.415,-0.303 0.411,-0.329 0.403,-0.351C0.395,-0.373 0.383,-0.39 0.368,-0.402C0.352,-0.414 0.334,-0.42 0.312,-0.42C0.29,-0.42 0.272,-0.413 0.256,-0.401C0.241,-0.389 0.23,-0.372 0.222,-0.35C0.214,-0.328 0.21,-0.302 0.21,-0.272C0.21,-0.243 0.214,-0.217 0.222,-0.195C0.23,-0.173 0.241,-0.156 0.257,-0.143C0.272,-0.131 0.29,-0.125 0.312,-0.125Z" style="fill:white;fill-rule:nonzero;"/>
            </g>
            <g transform="matrix(280.605,0,0,280.605,978.058,1000)">
                <path d="M0.246,0.007C0.207,0.007 0.174,-0.002 0.146,-0.019C0.117,-0.036 0.095,-0.06 0.08,-0.09C0.064,-0.121 0.056,-0.157 0.056,-0.198L0.056,-0.546L0.227,-0.546L0.227,-0.231C0.227,-0.201 0.234,-0.177 0.25,-0.159C0.266,-0.142 0.288,-0.133 0.316,-0.133C0.334,-0.133 0.351,-0.137 0.364,-0.145C0.378,-0.153 0.389,-0.165 0.397,-0.18C0.405,-0.195 0.409,-0.213 0.409,-0.234L0.409,-0.546L0.579,-0.546L0.579,-0L0.419,-0L0.416,-0.138L0.423,-0.138C0.41,-0.094 0.389,-0.059 0.36,-0.033C0.331,-0.006 0.293,0.007 0.246,0.007Z" style="fill:white;fill-rule:nonzero;"/>
            </g>
            <g transform="matrix(280.605,0,0,280.605,1145.15,1000)">
                <path d="M0.31,0.01C0.253,0.01 0.204,-0.001 0.163,-0.024C0.122,-0.046 0.09,-0.078 0.068,-0.12C0.046,-0.162 0.035,-0.213 0.035,-0.271C0.035,-0.327 0.046,-0.376 0.068,-0.419C0.09,-0.461 0.121,-0.494 0.162,-0.517C0.202,-0.541 0.25,-0.553 0.304,-0.553C0.343,-0.553 0.378,-0.547 0.41,-0.535C0.442,-0.523 0.47,-0.505 0.493,-0.481C0.517,-0.458 0.535,-0.429 0.548,-0.394C0.561,-0.359 0.568,-0.319 0.568,-0.274L0.568,-0.231L0.096,-0.231L0.096,-0.331L0.486,-0.331L0.407,-0.307C0.407,-0.333 0.403,-0.354 0.395,-0.373C0.388,-0.391 0.376,-0.405 0.361,-0.415C0.347,-0.424 0.328,-0.429 0.306,-0.429C0.283,-0.429 0.265,-0.424 0.249,-0.414C0.234,-0.405 0.223,-0.391 0.215,-0.373C0.207,-0.355 0.203,-0.334 0.203,-0.311L0.203,-0.239C0.203,-0.211 0.207,-0.188 0.216,-0.169C0.226,-0.15 0.239,-0.136 0.255,-0.127C0.272,-0.118 0.291,-0.113 0.313,-0.113C0.329,-0.113 0.343,-0.115 0.355,-0.12C0.368,-0.124 0.378,-0.13 0.387,-0.139C0.396,-0.147 0.403,-0.157 0.408,-0.169L0.56,-0.144C0.551,-0.113 0.535,-0.086 0.512,-0.063C0.49,-0.039 0.462,-0.022 0.428,-0.009C0.394,0.004 0.355,0.01 0.31,0.01Z" style="fill:white;fill-rule:nonzero;"/>
            </g>
            <g transform="matrix(280.605,0,0,280.605,1302.52,1000)">
                <path d="M0.327,0.01C0.272,0.01 0.223,0 0.18,-0.019C0.138,-0.037 0.104,-0.064 0.08,-0.097C0.056,-0.13 0.043,-0.169 0.043,-0.213L0.216,-0.213C0.216,-0.196 0.222,-0.182 0.231,-0.17C0.241,-0.157 0.254,-0.148 0.271,-0.141C0.288,-0.134 0.307,-0.131 0.328,-0.131C0.349,-0.131 0.368,-0.135 0.384,-0.142C0.4,-0.15 0.413,-0.16 0.422,-0.173C0.431,-0.186 0.436,-0.202 0.436,-0.219C0.436,-0.237 0.431,-0.252 0.421,-0.266C0.411,-0.279 0.396,-0.289 0.378,-0.297C0.36,-0.305 0.338,-0.308 0.313,-0.308L0.243,-0.308L0.243,-0.432L0.313,-0.432C0.335,-0.432 0.354,-0.435 0.371,-0.443C0.387,-0.45 0.4,-0.46 0.409,-0.473C0.419,-0.486 0.423,-0.501 0.423,-0.519C0.423,-0.535 0.419,-0.55 0.412,-0.562C0.404,-0.575 0.392,-0.584 0.378,-0.592C0.364,-0.599 0.347,-0.602 0.328,-0.602C0.309,-0.602 0.291,-0.599 0.275,-0.592C0.259,-0.585 0.246,-0.575 0.237,-0.562C0.227,-0.55 0.223,-0.535 0.222,-0.518L0.057,-0.518C0.057,-0.561 0.069,-0.599 0.093,-0.632C0.116,-0.665 0.149,-0.691 0.19,-0.709C0.23,-0.728 0.277,-0.737 0.329,-0.737C0.381,-0.737 0.426,-0.728 0.465,-0.71C0.505,-0.692 0.535,-0.667 0.557,-0.636C0.579,-0.604 0.59,-0.569 0.59,-0.529C0.59,-0.489 0.577,-0.455 0.55,-0.428C0.524,-0.402 0.489,-0.385 0.448,-0.379L0.448,-0.374C0.485,-0.369 0.516,-0.359 0.541,-0.344C0.566,-0.329 0.585,-0.31 0.597,-0.286C0.61,-0.263 0.616,-0.236 0.616,-0.206C0.616,-0.164 0.604,-0.127 0.579,-0.094C0.555,-0.062 0.521,-0.036 0.477,-0.018C0.434,0.001 0.383,0.01 0.327,0.01Z" style="fill:white;fill-rule:nonzero;"/>
            </g>
            <g transform="matrix(280.605,0,0,280.605,1475.55,1000)">
                <path d="M0.341,0.01C0.302,0.01 0.264,0.003 0.228,-0.009C0.192,-0.022 0.16,-0.043 0.131,-0.071C0.103,-0.099 0.081,-0.136 0.065,-0.182C0.048,-0.228 0.04,-0.284 0.04,-0.351C0.04,-0.411 0.047,-0.465 0.062,-0.513C0.076,-0.56 0.097,-0.601 0.123,-0.634C0.15,-0.668 0.182,-0.693 0.22,-0.711C0.257,-0.728 0.299,-0.737 0.345,-0.737C0.395,-0.737 0.44,-0.727 0.479,-0.708C0.517,-0.688 0.548,-0.662 0.572,-0.629C0.595,-0.596 0.609,-0.559 0.613,-0.518L0.444,-0.518C0.439,-0.541 0.427,-0.559 0.409,-0.572C0.391,-0.584 0.37,-0.59 0.345,-0.59C0.315,-0.59 0.29,-0.581 0.27,-0.564C0.25,-0.546 0.235,-0.521 0.225,-0.489C0.215,-0.457 0.211,-0.419 0.211,-0.375L0.215,-0.375C0.225,-0.397 0.24,-0.415 0.258,-0.431C0.277,-0.447 0.298,-0.459 0.322,-0.467C0.347,-0.475 0.372,-0.479 0.399,-0.479C0.443,-0.479 0.481,-0.469 0.515,-0.449C0.548,-0.429 0.574,-0.402 0.593,-0.367C0.612,-0.332 0.621,-0.292 0.621,-0.246C0.621,-0.196 0.61,-0.151 0.586,-0.113C0.562,-0.074 0.529,-0.044 0.487,-0.023C0.446,-0.001 0.397,0.01 0.341,0.01ZM0.34,-0.123C0.362,-0.123 0.382,-0.129 0.399,-0.139C0.416,-0.149 0.429,-0.163 0.439,-0.181C0.449,-0.199 0.454,-0.219 0.454,-0.241C0.454,-0.263 0.449,-0.283 0.44,-0.301C0.43,-0.319 0.416,-0.333 0.399,-0.343C0.382,-0.353 0.363,-0.358 0.341,-0.358C0.324,-0.358 0.309,-0.355 0.295,-0.349C0.282,-0.343 0.269,-0.335 0.259,-0.324C0.249,-0.313 0.241,-0.301 0.235,-0.287C0.229,-0.273 0.226,-0.257 0.226,-0.241C0.226,-0.219 0.231,-0.199 0.241,-0.181C0.251,-0.164 0.265,-0.149 0.282,-0.139C0.299,-0.129 0.318,-0.123 0.34,-0.123Z" style="fill:white;fill-rule:nonzero;"/>
            </g>
            <g transform="matrix(280.605,0,0,280.605,1650,1000)">
                <path d="M0.346,0.01C0.282,0.01 0.227,-0.005 0.181,-0.035C0.136,-0.064 0.101,-0.107 0.077,-0.162C0.052,-0.218 0.04,-0.285 0.04,-0.363C0.04,-0.442 0.052,-0.509 0.077,-0.565C0.101,-0.62 0.136,-0.663 0.181,-0.693C0.227,-0.722 0.282,-0.737 0.346,-0.737C0.41,-0.737 0.465,-0.722 0.511,-0.693C0.556,-0.663 0.591,-0.62 0.615,-0.565C0.639,-0.509 0.651,-0.442 0.651,-0.363C0.651,-0.285 0.639,-0.218 0.615,-0.162C0.591,-0.107 0.556,-0.064 0.511,-0.035C0.465,-0.005 0.41,0.01 0.346,0.01ZM0.346,-0.131C0.373,-0.131 0.397,-0.14 0.416,-0.158C0.435,-0.176 0.449,-0.202 0.459,-0.237C0.469,-0.272 0.474,-0.314 0.474,-0.363C0.474,-0.413 0.469,-0.456 0.459,-0.49C0.449,-0.525 0.435,-0.552 0.416,-0.57C0.397,-0.588 0.373,-0.597 0.346,-0.597C0.319,-0.597 0.295,-0.588 0.276,-0.57C0.257,-0.551 0.242,-0.525 0.232,-0.49C0.223,-0.456 0.218,-0.413 0.218,-0.363C0.218,-0.314 0.222,-0.272 0.232,-0.237C0.242,-0.202 0.257,-0.176 0.276,-0.158C0.295,-0.14 0.318,-0.131 0.346,-0.131Z" style="fill:white;fill-rule:nonzero;"/>
            </g>
            <g transform="matrix(280.605,0,0,280.605,1844.1,1000)">
            </g>
        </g>
    </g>
</svg>
